<?xml version="1.0" encoding="UTF-8"?>
<!-- Created with Inkscape (http://www.inkscape.org/) -->
<svg version="1.1" viewBox="0 0 1680 1022.7" xmlns="http://www.w3.org/2000/svg">
 <path d="m464.67 82-16.67 3.0098c-30.872 5.5735-87.584 25.491-97.01 34.07-1.6572 1.5084-7.2667 10.883-12.465 20.832-5.1982 9.9487-10.065 18.837-10.816 19.754s-3.953 1.668-7.1152 1.668c-17.728 0-54.085 13.444-60.279 22.291-1.4282 2.0395-5.0278 8.8077-7.998 15.041-6.596 13.842-7.8662 24.26-5.125 42.027 2.082 13.495 9.0384 29.861 13.531 31.836l2.7207 1.1953-0.51953 12.137c-0.65013 15.168 2.0294 28.771 9.2383 46.883l5.3379 13.41-2.4707 9.8125c-1.4033 5.5746-3.4384 10.423-4.7129 11.227l-2.2441 1.416-5.0332-4.834c-2.7691-2.6587-8.3358-6.9252-12.369-9.4805-4.0333-2.5553-10.863-8.3558-15.178-12.891l-7.8438-8.2461 0.84766-7.5781c3.1158-27.878 2.4536-34.123-3.7793-35.688-6.89-1.7293-14.617 2.9542-20.785 12.598l-2.0195 3.1582-11.955-6.6777c-6.5747-3.6731-15.473-8.8165-19.773-11.43-9.021-5.4812-21.244-8.7788-24.646-6.6484-3.4114 2.1359-3.4658 10.362-0.11328 17.287 2.0581 4.2514 5.6363 8.068 12.086 12.895 5.0387 3.7707 9.1602 7.1926 9.1602 7.6035s-1.6494 1.7299-3.666 2.9316c-6.2172 3.7047-9.668 7.6804-9.668 11.139 0 1.8205-1.551 5.6552-3.4492 8.5234l-3.4512 5.2148-0.2168 13.021-0.21484 13.021 4.2754 2.8965c2.3513 1.5932 11.918 5.4107 21.262 8.4844l16.988 5.5898 11.404-0.30859 11.402-0.31055 7.543 4.2832c10.493 5.9584 27.244 20.684 44.625 39.23 8.1072 8.6506 19.037 19.649 24.287 24.441 5.2505 4.7921 9.5449 9.4526 9.5449 10.355 0 4.0817-5.9103 13.237-10.672 16.529-2.8743 1.9875-5.2494 4.2895-5.2774 5.1172-0.13713 4.0785 16.689 6.7458 28.498 4.5176l8.5488-1.6133 9.7852 10.277c5.3818 5.6522 12.877 14.373 16.656 19.379 3.7789 5.0057 10.597 12.888 15.152 17.518 15.139 15.385 16.009 18.906 8.498 34.455-2.6468 5.4793-7.161 16.562-10.031 24.629-2.8702 8.0667-6.3346 16.195-7.6973 18.064-4.2978 5.8955-9.6689 17.467-8.9629 19.307 0.37305 0.97217 3.3541 2.9516 6.625 4.3984 6.5319 2.8894 9.0585 7.2872 5.9648 10.381-1.4012 1.4012-7.6932 1.9814-25.803 2.3809-26.222 0.57836-29.271 1.1185-54.412 9.6387-19.84 6.7237-35.965 15.852-48.873 27.668-4.7666 4.3632-11.091 10.15-14.055 12.859-2.9636 2.7098-7.858 7.7344-10.877 11.164l-5.4883 6.2344-6.6309 0.78711-6.6309 0.78516-1.5703-4.7578c-2.4846-7.5283-11.632-17.971-19.023-21.717-4.9431-2.5048-8.9868-3.4196-15.939-3.6074l-9.3164-0.25196-1.9121 2.6035c-7.9988 10.892-7.3269 40.252 1.3496 58.941 4.4234 9.5281 15.606 23.38 23.633 29.271l6.7168 4.9297 8.2051-1.5332c13.406-2.5052 17.41-3.966 25.891-9.4473l8.0645-5.2129 5.127 0.62695c6.2298 0.76167 13.315-3.1496 14.539-8.0254 0.95831-3.8182 5.0135-5.6459 15.252-6.873 4.0333-0.48342 12.923-2.3121 19.754-4.0644 8.182-2.0989 19.758-3.673 33.922-4.6133 11.825-0.785 22.014-1.7453 22.641-2.1328 2.1445-1.3254 50.703-0.50191 58.867 0.99804 4.4827 0.82356 12.65 3.1572 18.15 5.1875 5.5 2.0303 13.299 4.5086 17.332 5.5078 19.809 4.9075 76.522 37.564 93.334 53.744 4.7666 4.5875 12.421 11.227 17.01 14.754 5.5205 4.2429 12.033 11.419 19.246 21.209 5.996 8.1375 12.89 17.047 15.322 19.799 5.1658 5.8462 5.3117 6.7784 1.7559 11.299-1.4667 1.8646-2.668 4.4046-2.668 5.6445 0 2.7084 4.5106 6.8953 10 9.2832l4 1.7402-3.9336 2.8477c-5.7057 4.1297-11.156 10.01-15.549 16.775-3.0713 4.7298-3.8507 7.425-3.8477 13.334l0.00391 7.4062 6.3301 4.1973c3.4819 2.3094 7.2301 4.5137 8.3301 4.8965 2.978 1.0362 2.5917 1.0641 16.098-1.2285 15.569-2.6428 34.816-9.0263 41.953-13.916 3.1697-2.1716 6.9884-6.6201 9.2852-10.818l3.9004-7.1309 0.04883-10.439 0.04883-10.441-2.5234-1.8437c-2.6342-1.9273-2.9761-5.4302-1.4004-14.336 0.6369-3.5997 0.32661-5.7143-1.0781-7.332-1.0859-1.2506-2.3408-5.9845-2.7891-10.518-0.4483-4.5331-2.0286-12.62-3.5117-17.973-1.4832-5.3522-2.6973-12.837-2.6973-16.633s-1.7545-14.008-3.8984-22.693c-2.144-8.6855-5.4649-22.31-7.3809-30.277-1.916-7.9672-5.632-19.967-8.2559-26.666-2.6238-6.6994-4.7296-13.381-4.6816-14.848 0.39471-12.048 3.2154-34.682 4.5566-36.562 3.778-5.2974 8.614-10.368 13.256-13.898 10.458-7.9528 13.214-19.251 9.5293-39.062-3.0473-16.384-3.1509-45.304-0.20117-55.811 1.2353-4.4 2.9201-15.499 3.7441-24.666 2.2107-24.591 4.309-31.027 8.7324-26.785 0.69667 0.66813 6.5295 2.8419 12.963 4.832l11.697 3.6191 14.969-0.68164c10.128-0.46178 18.42-1.7022 25.637-3.834l10.666-3.1504v-3.2715-3.2695l-6.5078-2.3281c-8.5882-3.0726-12.227-6.7128-15.525-15.527-1.5-4.009-2.5548-7.4112-2.3457-7.5625 0.20913-0.15136 9.0796 0.14825 19.713 0.66602 20.438 0.99517 47.634-1.493 49.666-4.543 1.9124-2.8708 0.28947-5.3972-4.0332-6.2812-2.3935-0.48952-6.7706-2.5667-9.7266-4.6152-7.2732-5.0404-19.851-18.809-22.102-24.195-2.3485-5.6208-7.0149-29.74-5.7539-29.74 0.52612 0 3.0234 0.86472 5.5488 1.9199 2.5254 1.0552 9.0284 2.1039 14.451 2.332l9.8594 0.41601 0.43555-2.1172c0.23876-1.1639-1.6628-5.2302-4.2246-9.0371-2.5618-3.8069-6.0021-11.094-7.6445-16.193l-2.9863-9.2715 2.6953-3.0234c2.8778-3.2292 9.8145-18.609 9.8145-21.76 0-2.6942 5.7362-22.129 11.488-38.928 3.3126-9.6742 5.0576-17.372 5.3691-23.67 0.53118-10.739-1.4473-33.537-4.3398-50-1.0952-6.2333-2.4991-14.685-3.1211-18.781-1.3156-8.6642-6.0753-20.929-16.699-43.035l-7.6016-15.814-21.695-21.518-21.695-21.52-11.852-6.5508c-6.519-3.6029-14.519-8.879-17.777-11.727-3.2583-2.8476-10.458-7.3133-16-9.9238-14.574-6.8651-18.212-9.9493-19.227-16.291-1.012-6.3288-6.141-12.874-11.057-14.107-2.5607-0.64269-5.8371 0.23566-11.762 3.1523l-8.2129 4.043-7.9082-1.248c-31.698-5.003-43.78-5.913-79.244-5.9629l-36.666-0.050781zm13.334 7.0664 29.334 0.71875c29.37 0.7199 63.883 4.2425 82.666 8.4395 8.5137 1.9024 26.439 10.167 31.334 14.445 1.1 0.96145 6.4238 3.8908 11.832 6.5117 5.4083 2.6209 13.145 7.4935 17.193 10.826 4.0481 3.3326 11.923 8.438 17.5 11.346l10.141 5.2852 21.004 20.711 21.004 20.709 7.8516 15.662c4.3185 8.6149 9.3644 20.153 11.213 25.639 5.8789 17.447 10.453 44.121 11.197 65.307l0.67969 19.334-2.666 9.334c-5.9194 20.723-12.609 41.926-16.512 52.332v0.00195l-4.125 11-3.4902-0.03711c-1.9193-0.0204-5.8889-1.874-8.8223-4.1172-2.9333-2.2432-9.5346-6.2055-14.668-8.8066-5.1333-2.6011-13.014-7.3531-17.512-10.559-4.498-3.2055-11.097-7.0988-14.666-8.6524-3.5686-1.5535-7.3883-3.6024-8.4883-4.5547-1.1-0.95231-4.0994-1.9293-6.666-2.1699l-4.668-0.4375-0.42969-5.2754c-0.2366-2.901-0.08218-7.132 0.34375-9.4023l0.77539-4.127 13.373-6.4922c7.3558-3.5709 14.921-7.926 16.809-9.6758l3.4316-3.1797-0.82227-4.2578c-1.477-7.6487-9.4791-11.568-23.646-11.582l-7.5-0.00782-0.83398-4.168c-0.45834-2.2917-0.85486-10.241-0.88086-17.666-0.07901-22.559-4.0576-42.232-8.9199-44.098-2.9959-1.1496-10.943 3.2221-12.928 7.1113-2.7073 5.3059-4.7715 16.644-4.7715 26.219v8.6016h-5.9375c-3.2655 0-7.3534 0.64618-9.0859 1.4356-5.783 2.6349-11.706-0.15069-18.039-8.4824-13.353-17.567-66.305-58.454-80.938-62.494-9.3509-2.5822-19.112-6.3093-27.158-10.371-7.1147-3.5915-27.861-9.5526-67.508-19.395-8.0667-2.0024-16.466-4.1984-18.666-4.8809-2.2-0.68244-15.956-1.8249-30.568-2.5391-14.612-0.71414-26.736-1.4664-26.941-1.6719-0.20545-0.20545 3.6506-8.1498 8.5684-17.654l8.9414-17.281 10.709-5.334c11.948-5.9501 48.283-19.143 64.207-23.314 5.6998-1.4929 18.775-3.9677 29.057-5.5l18.693-2.7852zm125.56 1.8516c1.628-0.40138 4.945 0.57466 5.4414 2.082 0.30188 0.91667 0.05057 1.5968-0.56055 1.5117-3.545-0.49347-5.7793-1.5385-5.7793-2.7031 0-0.47139 0.35577-0.75683 0.89843-0.89062zm23.562 43.748c-0.94015 0-1.4578 0.7513-1.1504 1.668 3.326 9.9194 15.271 62.664 15.918 70.289 0.46477 5.4758 1.7428 11.326 2.8398 13 1.097 1.6742 2.5804 3.043 3.2969 3.043 2.1986 0 1.4084-17.29-1.4004-30.666-5.0025-23.823-16.402-57.334-19.504-57.334zm-300.38 35.094c6.8306-0.2116 14.628-0.11089 23.916 0.21289 33.213 1.1578 44.582 2.8292 72 10.592 6.9666 1.9724 17.467 4.8173 23.334 6.3203 17.081 4.376 27.461 7.8574 35.594 11.938 4.1765 2.0954 13.133 5.6489 19.904 7.8984 7.5221 2.4991 16.496 6.8094 23.072 11.08 5.9192 3.8443 14.27 9.0612 18.557 11.594 5.2151 3.0812 13.949 11.123 26.396 24.303l18.602 19.697-4.6367 4.373c-6.2423 5.8872-6.9996 9.9152-4.3965 23.418 1.2001 6.2252 2.046 11.395 1.8789 11.488-1.0496 0.58569-6.8869-1.4875-14.971-5.3144-21.455-10.157-45.999-19.311-84-31.33-8.8-2.7834-18.7-6.2348-22-7.6699-9.3583-4.0697-33.16-10.696-42-11.693-4.4-0.49626-14.599-2.0092-22.666-3.3613-23.944-4.0136-38.605-5.3262-64.668-5.791-36.899-0.658-52.917 1.5434-62.893 8.6465l-4.0488 2.8848-1.2754-1.8555c-3.0252-4.4011-6.4242-13.698-7.8184-21.387-2.3186-12.786-0.66744-21.886 6.5371-36.023l6.2441-12.252 9.9609-5.0371c17.109-8.6526 28.885-12.096 49.377-12.73zm604.35 15.732c-3.1068-0.45603-6.4562 0.5986-9.707 3.334-5.6859 4.7844-8.182 10.136-8.3594 17.924-0.10829 4.7538-0.68186 6.584-2.0606 6.584-1.0501 0-7.3973-1.8458-14.105-4.1016-16.677-5.6081-38.247-10.35-51.84-11.395l-11.32-0.86914-7.3027 3.3438c-8.6427 3.9568-12.803 9.7325-13.943 19.357-0.88321 7.4574 1.0029 12.143 7.2969 18.125 3.1683 3.0115 10.519 5.8111 35.617 13.564 17.393 5.3732 32.227 10.371 32.963 11.107 1.9202 1.9202-3.3438 9.8978-10.109 15.322-8.3724 6.7128-19.02 12.223-30.891 15.986-28.415 9.008-33.179 10.339-35.652 9.9629-1.8378-0.27953-3.4537-2.5365-5.2188-7.2832-1.4066-3.7828-3.886-7.7335-5.5098-8.7793-9.0357-5.8193-18.858-5.7372-21.215 0.17774-3.473 8.7165 5.192 34.75 15.186 45.623 5.8897 6.4082 16.92 9.7407 28.307 8.5527 12.905-1.3464 35.077-5.9036 42.561-8.748 3.7821-1.4375 7.597-2.6129 8.4785-2.6133 0.88153-3.6e-4 3.7846 3.7487 6.4512 8.332 2.6666 4.5833 7.2022 11.151 10.08 14.594l5.2344 6.2578-2.7168 5.2129c-2.8913 5.5471-2.4944 9.0795 1.1289 10.039 1.2209 0.32335 2.3461 0.65708 2.502 0.74218 0.15582 0.08506 3.464-1.0345 7.3496-2.4883 8.0933-3.0281 16.004-10.11 19.963-17.869 3.8657-7.5774 2.7496-17.596-3.3691-30.246-2.5987-5.3725-4.4247-10.253-4.0586-10.846 0.36608-0.59234 4.1562-3.4476 8.4238-6.3457 22.329-15.163 32.369-38.098 25.539-58.342-1.5386-4.5602-2.7969-8.8991-2.7969-9.6406s2.3075-2.5245 5.127-3.9629c2.8194-1.4384 7.0181-4.7709 9.332-7.4062l4.207-4.793v-6.5176c0-5.1143-0.76362-7.4259-3.5508-10.738l-3.5527-4.2227-4.7812 0.63477c-2.6297 0.34898-5.9979 1.0386-7.4844 1.5312l-2.7031 0.89453-1.582-5.918c-2.2366-8.3624-6.7381-13.318-11.916-14.078zm-1.4961 2.2812c1.1882-0.05268 2.3191 0.12906 3.3047 0.57812 6.2756 2.8594 10.641 18.357 7.0566 25.055-0.75508 1.4109-3.1257 3.4725-5.2676 4.5801-8.1161 4.197-17.736 1.1294-19.186-6.1172-0.96287-4.8143 1.0093-13.385 4.2031-18.26 2.24-3.4187 6.324-5.6779 9.8887-5.8359zm643.81 12.381c-2.5253-0.30252-5.0268 0.81483-7.9766 3.2969l-4.1015 3.4531 0.0156 5.5469c0.0102 3.4602 1.2797 7.7596 3.3731 11.422l3.3554 5.8711-2.6426 2.8125c-1.4533 1.547-3.6081 5.1248-4.789 7.9512l-2.1465 5.1387-4.916-0.83007c-2.7041-0.45732-9.7173-1.7072-15.584-2.7774-5.8667-1.0702-13.366-1.9716-16.666-2.002l-6-0.05469-2.2715-3.9902c-2.7783-4.8824-4.503-5.0684-5.623-0.60547l-0.8497 3.3867-4.8183-0.9043-4.8203-0.9043 0.6738 3.5176c0.4395 2.2986 0.0882 3.5176-1.0117 3.5176-1.0598 0-1.6338 1.7274-1.5508 4.666 0.0727 2.5667 0.6512 4.668 1.2852 4.668 0.6345 0 0.9656 1.35 0.7363 3-0.3299 2.3717 0.1625 2.9196 2.3496 2.6211 1.6767-0.22884 4.6457 1.396 7.5371 4.123 4.7078 4.4399 22.394 11.38 34.803 13.656 6.229 1.1425 6.7406 2.2775 4.4805 9.9316-1.3781 4.6672-2.3428 5.9275-4.3457 5.6719-1.4163-0.18071-8.2756-1.2348-15.242-2.3418-6.9667-1.107-15.169-1.6468-18.228-1.2012l-5.5625 0.81055-2.1816-4.2207c-1.2005-2.3214-2.8565-3.997-3.6797-3.7227-4.0031 1.3344-6.284 16.964-3.5996 24.664l1.414 4.0566 9.4707 4.2344c5.2084 2.3289 14.824 5.4814 21.369 7.0078l11.9 2.7754-0.7891 3.4668c-2.0369 8.9477-2.408 22.983-0.7617 28.863 1.8736 6.6918 11.631 18.523 19.06 23.109 6.0712 3.7481 23.939 9.5129 33.467 10.797v-0.00195c17.631 2.376 34.644-0.92601 46.137-8.9551 7.7656-5.4254 10.246-9.799 8.8086-15.527-2.2868-9.1116-10.705-11.081-26.371-6.1699-17.125 5.3682-33.67 2.7521-41.508-6.5625l-3.6113-4.291v-7.9395c0-5.7881 0.5365-8.1459 1.9785-8.6992 1.0879-0.41746 7.5367 0.18423 14.332 1.3379 6.7955 1.1537 17.884 2.4151 24.641 2.8027l12.283 0.70508 3.375-4.9648c4.0637-5.9804 7.9247-17.054 6.8886-19.754-1.0996-2.8657-4.3826-2.3769-6.7519 1.0059l-2.0703 2.957-4.3379-2.6152c-2.3859-1.4385-12.737-4.7449-23.004-7.3476l-18.668-4.7324 0.4102-3.2754c0.2251-1.8017 1.0211-5.226 1.7695-7.6094 1.6049-5.1107 1.9607-5.1517 20.604-2.3418 7.2694 1.0957 16.618 1.996 20.774 2 4.8502 0.00505 7.7552 0.60586 8.1152 1.6758 0.4409 1.3098 1.0231 1.285 2.7148-0.11132 1.2899-1.0646 3.3197-1.4054 5.0645-0.85157l2.9121 0.92383-0.8731-3.4805c-0.5968-2.3787-0.3378-3.488 0.8184-3.502 0.9307-0.01122 2.5527-0.56425 3.6055-1.2305l1.916-1.2129-1.7324-2.0859-1.7305-2.0859 2.1504-0.82422c3.8193-1.4656 2.469-4.5391-1.9941-4.5391h-4.1446l0.8164-3.252c1.058-4.2158-0.9791-5.3877-4.9004-2.8184l-3.1171 2.041-9.254-4.584c-5.0905-2.5212-13.719-5.8068-19.174-7.3027-5.4549-1.496-10.282-3.1779-10.725-3.7363-0.4428-0.5584-0.5778-5.0656-0.3008-10.016 0.3568-6.3757 1.0234-9 2.2871-9 2.8415 0 9.4914-6.2448 11.301-10.613 2.104-5.0796 1.028-9.3489-3.4941-13.871-5.1064-5.1065-9.2244-5.7883-13.934-2.3066l-3.9024 2.8848-5.1172-5.3789c-3.0441-3.2001-5.5938-4.924-8.1191-5.2266zm-648 1.7598c-2.7072-0.12454-5.1645 0.85239-5.9863 2.9941-1.2518 3.2622 0.25509 3.7953 3.1992 1.1309l2.6406-2.3906 3.3672 2.207c1.8521 1.2136 3.3672 3.392 3.3672 4.8418 0 1.5045 0.897 2.6367 2.0898 2.6367 2.2596 0 1.597-4.324-1.1973-7.8066-1.8158-2.2631-4.7733-3.4887-7.4805-3.6133zm645.91 0.97071c2.6316-0.33829 5.4164 0.93737 7.8964 3.8848 4.6756 5.5566 4.5234 11.031-0.4453 16-4.4117 4.4118-5.2732 4.619-8.7187 2.0996-3.0877-2.2577-1.839-4.3655 4.041-6.8223 2.5165-1.0515 4.5742-2.5254 4.5742-3.2774 0-1.7291-7.0847-5.4514-10.266-5.3926l-2.4004 0.04493 3.1895 2.6562c1.7539 1.4606 2.9532 2.8584 2.666 3.1074-0.8749 0.75848-6.3066 3.4805-6.9453 3.4805-1.4358 0-1.8656-7.5478-0.5684-9.9844 1.8666-3.5061 4.3449-5.4586 6.9766-5.7969zm-613.99 2.0605c5.9817 1.5642 9.0621 12.76 5.3965 19.609-0.98871 1.8474-4.0574 4.8552-6.8203 6.6836-7.8264 5.1793-11.083 5.551-13.693 1.5664-3.05-4.6548-2.7694-11.137 0.78711-18.189 3.2057-6.3571 9.8511-10.841 14.33-9.6699zm638.69 3.0547c3.6283 0 10.65 7.6271 10.65 11.568 0 2.0481-1.7733 5.1386-4.5332 7.8984-5.9821 5.9822-10.579 6.0464-14.154 0.19922-1.4573-2.3833-2.3486-5.1308-1.9805-6.1074 0.3682-0.97664 0.668-2.5807 0.668-3.5644 0-2.8616 6.6724-9.9941 9.3496-9.9941zm-907.74 2.8398c-4.106 0.07489-7.4868 1.5864-10.549 4.6484l-3.3789 3.3789 0.89258 7.9004 0.89453 7.8984h-5.4004c-6.9896 0-11.361 3.9483-10.092 9.1152 1.2566 5.1143 4.5695 9.7698 7.4961 10.535 1.8685 0.48862 2.5293 1.8646 2.5293 5.2598 0 5.6752 1.8522 9.5237 6.459 13.418 5.7361 4.8489 10.462 3.9642 17.139-3.2051l5.7832-6.209 3.0625 2.877c1.6843 1.5824 4.7761 2.877 6.8711 2.877 7.972 0 10.788-7.0582 6.709-16.82l-1.9785-4.7344 4.6445-4.3809c5.1569-4.8636 5.8954-9.1124 2.668-15.354-2.1772-4.2102-7.4683-6.0697-13.186-4.6348l-3.5039 0.8789v-2.6934c0-3.5987-6.9675-9.2806-12.697-10.355-1.5448-0.28981-2.9946-0.42535-4.3633-0.40039zm0.01758 2.543c2.9409-0.06756 6.1025 0.92829 9.1777 2.9941l4.5312 3.043 0.41602 5.7559 0.41601 5.7539 2.3379-2.1152c4.0857-3.6975 10.178-4.1324 13.357-0.95312 5.1481 5.1481 2.6836 12.876-5.1406 16.117-4.7789 1.9795-4.775 1.9652-1.5273 5.2129 3.2586 3.2586 4.973 12.866 2.7695 15.521-2.6357 3.1758-7.4441 2.2882-11.092-2.0469-1.8512-2.2-3.8666-4-4.4805-4-0.61391 0-2.276 2.1532-3.6934 4.7852s-4.0348 5.9326-5.8164 7.334c-3.5983 2.8304-6.3868 3.1426-9.8809 1.1074-4.839-2.8185-8.3609-14.481-5-16.559 2.5924-1.6022 1.2798-3.1694-3-3.582l-4.332-0.41797-5.0781-10.402 2.459-1.7988c3.0219-2.2097 8.6915-2.3172 13.229-0.25 4.5356 2.0666 5.1644 1.0768 2.5918-4.0801-1.1789-2.3631-2.4539-6.6137-2.834-9.4473l-0.6914-5.1524 3.4336-3.4355c2.1868-2.1868 4.9068-3.3172 7.8477-3.3848zm909.21 1.6445c-3.0278 0.54906-8.166 2.7033-8.166 3.8145 0 0.71564 1.6493 3.369 3.666 5.8965 2.0167 2.5275 4.118 4.5957 4.668 4.5957 1.7518 7e-5 1.0746-3.6122-1-5.334-2.5445-2.1115-2.5932-5.334-0.0801-5.334 2.0951 0 4.1106-2.4129 2.9687-3.5547-0.2713-0.27138-1.0473-0.26701-2.0566-0.08399zm-648.97 2.3379c-1.7719-0.07298-3.1992 0.5987-3.1992 2.0586 0 1.5017 0.76957 1.8436 2.7383 1.2188l2.7402-0.86914 1.5527 4.1133c0.85388 2.2622 2.0212 4.1133 2.5938 4.1133 1.8941 0 1.0796-5.7471-1.166-8.2285-1.3723-1.5164-3.4878-2.3333-5.2598-2.4062zm-841.98 2.6348c-1.8562 0-3.0109 1.8244-4.5859 7.2422-2.1027 7.2329-8.6155 15.424-12.264 15.424-3.813 0-2.8948 3.7183 2.2559 9.1328 5.3959 5.6723 10.705 14.54 10.705 17.881 0 0.98255 0.72156 2.5067 1.6016 3.3867 2.5239 2.5239 3.1986 1.9758 5.0059-4.0664 2.1425-7.1632 5.7629-12.28 10.791-15.25 2.1648-1.2788 3.9356-2.8656 3.9356-3.5273 0-0.66175-1.7967-3.2495-3.9922-5.75-5.025-5.7231-8.8492-13.161-10.045-19.535-0.67425-3.594-1.6024-4.9375-3.4082-4.9375zm828.71 1.5391c1.52-0.29467 2.1614 0.18649 1.7793 1.334-0.32856 0.9867-1.6676 2.0005-2.9746 2.2539-1.52 0.29467-2.1594-0.18453-1.7773-1.332 0.32856-0.9867 1.6656-2.0025 2.9726-2.2559zm646.07 3.7949c0.7334 0 1.332 0.59871 1.332 1.332s-0.5986 1.334-1.332 1.334c-0.7333 0-1.334-0.60065-1.334-1.334s0.6007-1.332 1.334-1.332zm-484.76 4c-1.0304 0-4.1298 4.4647-6.8887 9.9219-3.3856 6.6969-6.5338 10.934-9.6836 13.037-3.2296 2.1561-5.4886 5.2544-7.334 10.062-1.9646 5.1182-3.3674 6.9631-5.332 7.0039l-2.668 0.05468 2.668 1.5117c4.7878 2.715 6.4679 7.7402 2.5879 7.7402-1.1433 0-1.7092 0.60065-1.2559 1.334 0.4532 0.73333 2.2157 1.334 3.916 1.334s3.8775 0.9463 4.8379 2.1035c2.606 3.14 12.51 7.7929 25.246 11.861 6.2324 1.9909 11.931 3.8171 12.666 4.0566h2e-3c3.9239 1.2784 14.871 0.35684 18.994-1.5996l4.7305-2.2461 3.8047 2.1836c2.0921 1.2007 3.8027 1.6324 3.8027 0.95898 0-0.67341-1.1993-1.8674-2.666-2.6523-5.0903-2.7243-2.6044-6.515 4.4414-6.7715l2.8906-0.10547-3.7422-1.3652-3.7421-1.3633 0.8671-3.9473c0.4766-2.1702 2.3023-6.4578 4.0586-9.5293 2.1198-3.7071 3.2-7.7043 3.211-11.891 0.0187-7.3073 3.2905-16.464 6.2968-17.617 1.1415-0.43807 4.0279-0.43168 6.4122 0.01562 5.053 0.94794 6.9157-0.95923 3.8906-3.9844-7.4505-7.4505-19.252 5.9698-19.252 21.895 0 3.4391-2.7857 9.3301-4.4121 9.3301-0.7249 0-3.3658-2.108-5.8691-4.6856s-7.514-6.1886-11.135-8.0234l-6.584-3.3359 0.0801-3.6426c0.0437-2.0043 0.5497-6.4952 1.1231-9.9785 1.3547-8.2306-0.1582-8.1709-8.5352 0.33398-3.6115 3.6667-7.0512 6.666-7.6445 6.666-1.1236 0-1.9382-1.7695-5.6719-12.334-1.233-3.4889-3.0791-6.332-4.1113-6.332zm-114.09 0.38282c-3.8721-0.02051-6.8384 2.7758-9.3106 8.623-1.4711 3.4795-3.247 7.5275-3.9453 8.9941-0.69835 1.4667-1.7291 7.5103-2.291 13.432l-1.0215 10.766 2.9609 2.2344c7.657 5.7757 17.371 0.18303 21.592-12.432 4.0899-12.225 9.2702-10.001 6.8184 2.9277-1.9009 10.024-0.40425 19.429 3.2129 20.197 1.5608 0.33135 4.5615 0.36428 6.6699 0.07227 2.1083-0.29203 4.7581-0.53125 5.8887-0.53125 1.1309 0 1.6837-0.37294 1.2285-0.82812-0.4552-0.45517 0.6456-2.9942 2.4453-5.6426 1.7996-2.6484 3.2715-5.2022 3.2715-5.6758s0.9848-3.1839 2.1895-6.0234c3.1321-7.3829 2.5019-20.212-1.1875-24.164-4.2836-4.5886-11.819-4.1233-16.125 0.99414-1.8478 2.196-3.7422 5.1954-4.209 6.666-1.0451 3.2929-3.2962 3.5151-3.4395 0.33985-0.06288-1.3939-0.37559-1.6617-0.77735-0.66602-1.3817 3.4243-2.5047 1.4911-2.0293-3.4941 0.63611-6.6703-2.4929-12.66-7.752-14.838-1.5071-0.62425-2.8987-0.94434-4.1894-0.95117zm324.18 1.2285c-7.501-0.62315-18.237 5.6584-25.24 14.77l-5.9317 7.7168-0.5742 7.9492-0.5742 7.9473 3.7852 7.6699c2.6327 5.3332 8.1348 12 18.064 21.889l14.277 14.219-2.0704 6.4473c-3.1841 9.9156-2.7942 27.423 0.8184 36.766 6.3982 16.547 17.664 27.859 32.639 32.773l8.1386 2.6719 0.0137 7.2559c0.0084 8.0591 1.7604 11.083 7.9922 13.799h-0.0059c6.3602 2.7719 14.861 2.3204 18.146-0.96484l2.8145-2.8145 3.25 1.4805c5.3827 2.4525 14.338 1.8138 18.303-1.3047 7.0751-5.5652 9.4263-14.93 5.6035-22.322l-1.8828-3.6426 11.254-5.7637c12.162-6.2278 17.511-11.676 18.684-19.029 0.9538-5.9809-1.3795-11.554-5.4902-13.117-3.7063-1.4091-17.935 0.84458-35.301 5.5918-7.2292 1.9762-12.292 2.5331-18.494 2.0352-10.331-0.82926-14.798-3.7365-17.502-11.391l-1.9473-5.5156 1.5664-7.4707c2.9087-13.868 8.1737-19.12 46.33-46.227l16-11.365 4.9473 2.5c10.626 5.3729 14.241 2.3828 11.971-9.9024-2.1434-11.599-7.7746-21.999-14.451-26.691l-5.498-3.8633-12.484 4.6855c-28.025 10.518-41.946 18.409-56.912 32.266-4.3608 4.0373-8.748 7.3418-9.75 7.3418-1.0018-1e-5 -4.7276-3.9278-8.2793-8.7266-3.5517-4.7987-9.7366-12.265-13.744-16.594l-7.2872-7.8711 2.1797-3.3281c1.1992-1.8302 1.9841-4.7119 1.7442-6.4043-0.3475-2.4514-1.3838-3.156-5.1016-3.4648zm-1200.3 1.9316 2.3594 4.5606c1.2975 2.509 3.4973 6.1024 4.8887 7.9844l2.5293 3.4219-5.0976 5.5781c-2.8044 3.068-5.3857 5.5456-5.7363 5.5058-0.35062-0.03968-2.64-3.1075-5.0859-6.8184l-4.4473-6.748 3.9395-4.1797c2.166-2.2995 4.5489-5.3351 5.2949-6.7441l1.3555-2.5606zm873.45 4.4766 2.1914 0.02148-4 2.6758 2.3125 1.7734c1.2719 0.97524 1.9228 2.1631 1.4453 2.6406-1.528 1.528-4.1145 0.93232-4.9062-1.1309-1.113-2.9004 0.42089-6.0041 2.957-5.9805zm-343.76 0.7207c0.51969-0.26614 0.90928-0.00236 1.3047 0.7207 1.9199 3.5109 4.3214 26.237 3.6699 34.732-0.35736 4.6599-0.03637 12.275 0.71289 16.922l1.3633 8.4473 3.2031 1.2188c1.7622 0.66997 6.485 1.2188 10.494 1.2188 8.8969 0 17.806 3.2628 15.42 5.6484-0.87374 0.87373-7.72 4.61-15.215 8.3027-9.2008 4.5333-14.169 7.7982-15.295 10.049-0.94288 1.8848-1.6768 8.3414-1.6875 14.857l-0.01953 11.523-2.1094 0.8086c-2.3993 0.9207-15.813 1.1092-16.688 0.23437-0.31639-0.3164-5.9675-1.2832-12.557-2.1484-6.5892-0.86524-12.781-2.2233-13.762-3.0176-1.1479-0.93005-1.5451-3.1304-1.1152-6.1836 0.68678-4.878-1.4201-18.859-5.8398-38.744-1.3857-6.2345-2.1611-12.706-1.7227-14.383 1.0945-4.1853 10.341-8.5493 15.902-7.5059 2.6727 0.5014 5.7448 0.01269 8.3301-1.3242 5.4318-2.8089 6.242-2.7037 9.9316 1.2754l3.1445 3.3906 3.4707-1.3184 3.4707-1.3203 0.68945-7.0723c0.37989-3.8901 0.63852-12.292 0.57422-18.672-0.09057-8.9999 0.41252-12.407 2.2461-15.205 0.91269-1.3929 1.5623-2.189 2.082-2.4551zm351.12 0.71875c0.3589-0.05888 0.46514 0.67742 0.34375 2.207-0.10417 1.3126 0.5995 2.1699 1.6074 1.959 0.98541-0.20625 1.5355 0.39246 1.2227 1.332-0.72663 2.1823-4.5022 2.9518-5.6191 1.1445-0.46895-0.75879-0.20322-2.5924 0.58984-4.0742 0.88572-1.655 1.4966-2.5095 1.8555-2.5684zm25.16 6.8613c0.237-0.13276 0.6133 0.09377 1.1758 0.65625 0.8306 0.83071 1.1499 2.4503 0.709 3.5996-0.8062 2.1008-5.0072 2.8581-6.6641 1.2012-1.8324-1.8323-0.792-3.2614 1.7793-2.4453 1.9801 0.62843 2.666 0.23997 2.666-1.5098 0-0.87758 0.097-1.3692 0.334-1.502zm190.02 4.1465c-1.221-0.12549-2.4619-0.05706-3.6386 0.24024l-3.3848 0.85546 3.4101 1.793c4.0119 2.11 6.3841 6.7813 7.4707 14.709 0.9381 6.8439-0.3648 16.729-2.6035 19.75l-1.6113 2.1758-4.9648-1.3809c-7.1321-1.9849-10.805 0.39235-23.453 15.18-13.076 15.288-19.887 21.005-31.039 26.059-9.1944 4.1665-25.375 6.8026-41.877 6.8223-14.016 0.0168-18.081 1.6519-27.955 11.238-9.4105 9.1366-10.17 12.267-3.3105 13.639 2.4487 0.48974 4.2656 2.0358 5.2871 4.502 0.856 2.0664 2.702 4.7939 4.1016 6.0606 3.2722 2.9613 3.2293 5.4285-0.1231 7.2227-2.8617 1.5315-3.605 4-1.2051 4 0.8035 0 3.0815-1.1539 5.0625-2.5645l3.6016-2.5644 8.6035 2.8926c10.671 3.5876 10.15 3.1892 8.2207 6.2793-0.8889 1.4234-1.6152 3.2172-1.6152 3.9863 0 2.1267 4.9952-0.90754 6.6816-4.0586 1.0585-1.9778 2.8151-2.6442 7.0313-2.6641 9.2883-0.04365 22.681-2.3845 33.797-5.9102 18.868-5.9841 33.391-16.531 45.658-33.16 3.4372-4.6595 6.4369-7.4946 7.5019-7.0859 2.0734 0.79564 3.3301-1.8634 3.3301-7.0508 0-2.0252 1.1994-7.1687 2.666-11.432 3.0771-8.9436 3.3601-17.243 0.75-21.957l-1.8203-3.291 2.5351-3.2227c1.3945-1.7728 2.5352-4.5216 2.5352-6.1094 0-1.5878 0.5391-3.4576 1.1973-4.1543s1.5235-3.6663 1.9238-6.5996c0.4002-2.9333 1.1208-7.2243 1.6016-9.5352l0.875-4.2012-2.875-0.91211c-1.5813-0.50188-3.4312-2.3725-4.1094-4.1562-1.1023-2.8993-4.5928-5.0181-8.2559-5.3945zm-183.14 0.30469c1.2474 0.03277 2.1192 0.24429 2.1192 0.62109 0 0.52099-0.8215 1.6288-1.8242 2.4609-1.3866 1.1508-2.2232 1.0298-3.4961-0.50391-0.9204-1.109-1.4509-2.0678-1.1778-2.1289 1.5071-0.33722 3.1316-0.48199 4.3789-0.44922zm69.41 4.5606c1.3799 0 2.041 1.2969 2.041 4 0 4.2911-3.4279 5.7049-4.8496 2-1.0857-2.8294 0.3981-6 2.8086-6zm6.041 1.334c0.7333 0 1.334 1.5007 1.334 3.334 0 1.8333-0.6007 3.332-1.334 3.332-0.7334 0-1.332-1.4987-1.332-3.332 0-1.8333 0.5986-3.334 1.332-3.334zm-729.41 2.2773 10.371 0.8711c12.43 1.0436 20.315 3.0587 20.531 5.248 0.08726 0.8822 0.34558 5.8519 0.57422 11.045 0.49023 11.134 4.6825 30.178 10.025 45.539 4.9213 14.149 5.9417 16.054 20.67 38.596 8.3583 12.793 13.664 19.586 16.398 21 4.9571 2.5634 4.8436 2.5646 7.4121-0.0039 1.4874-1.4874 2.0948-4.6785 2.0918-11-0.00563-12.831 2.5026-43.663 4.25-52.238 1.4384-7.0588 9.7659-25.959 13.748-31.201l1.9258-2.5332 8.373 2.7168c4.6052 1.4946 10.239 3.115 12.52 3.5996 2.9684 0.63088 6.0928 3.3099 11 9.4336 3.7697 4.7042 6.8535 8.8264 6.8535 9.1602s-4.05 1.9296-9 3.5469c-9.602 3.1371-11.985 4.509-9.9805 5.748 0.68817 0.42532 5.6895-0.66289 11.115-2.4199l9.8652-3.1953 2.666 3.0781c15.737 18.163 35.178 46.887 33.021 48.793-0.56112 0.49599-10.321 3.4522-21.688 6.5684-33.689 9.2358-44 14.25-44 21.398v3.666l7.1856 0.89648c11.779 1.4716 34.729 9.7237 55.73 20.037 8.3459 4.0985 12.184 3.7793 11.512-0.95507-0.30912-2.1768-2.6656-4.1092-8.543-7.0059-10.963-5.403-38.493-16.279-45.828-18.105-4.3658-1.0869-5.4068-1.7795-3.9238-2.6094 2.1967-1.2293 40.967-12.62 49.414-14.518l5.209-1.1699 3.1934 6.3047c4.018 7.9292 9.0096 23.58 12.945 40.59 3.1597 13.656 4.7657 15.862 9.4297 12.949l2.6387-1.6484-0.79297 10.438c-0.43581 5.7404-1.1805 25.635-1.6543 44.211l-0.86132 33.773-3.4941 1.4141c-1.9217 0.77741-5.2942 2.1783-7.4941 3.1133-4.8008 2.0403-30.98 6.7399-44 7.8984v-0.00195c-5.1333 0.45676-10.533 0.97533-12 1.1504-4.9156 0.58675-38.583-1.5319-46-2.8945-32.845-6.0343-69.271-17.66-89.982-28.717-27.069-14.452-47.088-28.901-55.549-40.096-7.7724-10.284-18.263-31.532-21.211-42.959-2.6352-10.214-5.149-36.455-3.4922-36.455 0.45862 0 1.7842 1.8366 2.9453 4.082 1.5405 2.979 2.9004 3.9695 5.0332 3.666l2.9238-0.41601 0.90235-20.666 0.90234-20.666 3.9668-14.684c2.1818-8.0758 7.0691-21.176 10.859-29.113l6.8906-14.432 9.9688-10.434c5.4829-5.7389 13.224-12.675 17.201-15.414l7.2305-4.9805zm740 0.43946c0.7565-0.07365 1.3803 0.44748 1.3145 1.6172-0.0515 0.91667-0.5864 2.8654-1.1895 4.332l-1.0957 2.668-0.9531-2.334c-0.5238-1.2833-0.6077-3.234-0.1856-4.334 0.4638-1.2084 1.3529-1.8756 2.1094-1.9492zm5.4824 0.91015c0.5815 0.08394 1.2529 0.4018 2.0059 0.96094l2.5879 1.9219-1.4766 2.4121c-2.2967 3.7516-5.8619 3.8589-5.8379 0.17578 0.0255-3.8575 0.9763-5.7225 2.7207-5.4707zm-741.62 11.039c-2.8662 0-0.35594 5.5849 9.0234 20.084 3.3105 5.1174 6.6097 8.9406 7.332 8.4941 0.79241-0.48975 0.32286-2.4835-1.1836-5.0273-11.134-18.801-14.194-23.551-15.172-23.551zm1077.6 2-1.6934 2.5c-0.9314 1.3744-3.0653 4.5799-4.7402 7.125-1.6751 2.5451-2.3111 4.383-1.4141 4.084 2.2639-0.75463 6.0791-6.3749 7.043-10.375l0.8047-3.334zm-223.68 1.2695c-0.1406 0.18335-0.244 0.66511-0.2735 1.3984-0.0589 1.4667-2.5006 6.1154-5.4277 10.332-3.8216 5.5055-4.7427 7.668-3.2637 7.668 1.1328 0 2.6882-1.8 3.4551-4 0.767-2.2 1.8894-4 2.4941-4 1.4935 0 4.3515-8.9476 3.5176-11.012-0.1838-0.45514-0.3614-0.57008-0.5019-0.38672zm230.11 1.3984-1.3378 3.332c-0.7362 1.8333-2.4692 5.6239-3.8497 8.4238h2e-3c-1.5679 3.1799-1.9073 4.8957-0.9043 4.5703 2.2549-0.73164 6.1492-9.0031 6.1172-12.994l-0.0274-3.332zm-194.86 2.1289c-0.707-0.58847-1.0095 0.63393-0.2617 4.2031 1.4533 6.9373 5.8288 16.036 9.6113 19.986 5.2727 5.506 5.145 3.4476-0.2519-4.0644-2.6367-3.6701-5.5191-9.7278-6.4063-13.463-0.8725-3.6731-1.9844-6.0736-2.6914-6.6621zm7.2598 1.8711-0.1094 3.4668c-0.0598 1.9066 1.7362 6.0115 3.9902 9.123 2.254 3.1116 4.4198 5.336 4.8125 4.9434 0.3926-0.39265-0.494-2.4075-1.9687-4.4785-1.4747-2.0711-3.5909-5.8556-4.7031-8.4102l-2.0215-4.6445zm-1198.5 0.86133c-1.2943-0.01657-2.5339 1.5803-3.1914 4.7949-1.1297 5.5237-6.9118 13.1-12.006 15.734-4.5972 2.3773-4.4701 2.7092 4.0781 10.705 3.6358 3.4009 7.6481 8.8681 9.2617 12.619 3.9314 9.1387 6.0599 8.5404 7.8398-2.2012 1.5256-9.2065 3.7756-12.835 9.9297-16.018 4.822-2.4935 4.6319-4.0587-0.77148-6.3164-5.5263-2.309-9.7851-7.5972-11.627-14.438-0.87089-3.2342-2.2194-4.8643-3.5137-4.8809zm85.461 9.1387c2.8554 0 11.59 3.9695 17.426 7.9199 2.9498 1.9968 9.8633 6.1677 15.363 9.2695 5.5 3.1018 11.872 6.8134 14.162 8.248 2.2898 1.4347 4.9898 2.283 6 1.8848s3.3366-3.8365 5.1699-7.6406c3.1958-6.6314 9.4256-12.035 11.492-9.9687 0.53688 0.53687 0.19366 7.5632-0.76367 15.613-2.4572 20.663-1.8246 23.222 8.2578 33.361 4.5911 4.617 12.247 10.924 17.014 14.018 4.7666 3.0934 10.412 7.4832 12.545 9.7539 4.2374 4.5108 3.77 5.1279-4.4102 5.8223-5.9503 0.5051-8.5707 4.388-4.834 7.1621 4.4466 3.3011 20.814 7.5577 26.254 6.8281l5.002-0.66992 3.377 4.4297c2.3688 3.1057 4.1398 8.3435 5.9258 17.531 1.4009 7.2068 3.611 15.804 4.9121 19.104 3.3622 8.5275 12.424 24.56 17.064 30.189 4.9 5.9446 30.176 28.477 31.943 28.477 0.71368 0 4.5143 3.044 8.4473 6.7637 4.5305 4.2848 11.194 8.6304 18.184 11.859 6.0673 2.8031 11.856 6.0923 12.865 7.3086l1.8359 2.2109-1.5039 8.084c-0.8268 4.4458-2.4403 9.5133-3.5859 11.262-3.2197 4.9138-9.3321 3.7073-15.432-3.0449-1.8763-2.0771-6.7436-8.2754-10.816-13.775-4.0728-5.5-11.696-14.801-16.939-20.668s-13.876-15.762-19.184-21.99c-5.3077-6.2281-14.15-15.887-19.65-21.467-25.74-26.111-38.474-39.456-40.279-42.207-4.3998-6.7038-31.83-28.907-38.791-31.398-1.0446-0.37396-0.5187-1.7435 1.5254-3.9688 3.4899-3.7993 3.4054-8.0353-0.17382-8.7246-1.2956-0.2495-4.5054 1.4333-7.1328 3.7402-5.3616 4.7076-9.7095 6.6836-14.711 6.6836-2.3245 0-3.169-0.57529-2.6875-1.8301 0.38613-1.0062 1.1295-4.7569 1.6504-8.334 0.52088-3.5771 1.6997-8.0026 2.6191-9.8359s2.1022-7.6865 2.6289-13.006l0.95703-9.6719-4.2695-3.9883c-2.3481-2.1934-7.7081-5.8198-11.912-8.0606-4.8774-2.5996-9.4554-6.4497-12.648-10.637-2.7522-3.6089-6.9022-7.7402-9.2227-9.1816-8.4855-5.2711-18.03-17.455-13.674-17.455zm-86.309 4.6699c0.81573-0.04618 2.3652 1.2591 4.7656 3.9902l4.6836 5.3281-3.1758 3.7754c-1.7468 2.076-3.1758 4.5913-3.1758 5.5918 0 3.554-2.0648 2.7727-6.8789-2.6035l-4.8789-5.4473 3.7129-4.1543c2.0417-2.2851 4.0084-4.979 4.3711-5.9863 0.11269-0.31295 0.30426-0.47875 0.57617-0.49414zm646.99 3.3301c-3.0389 0-7.8887 6.148-7.8887 10v2.9746l-7.668-0.15429-7.666-0.1543-0.01367 6.2227-0.01367 6.2246-3.6524 2.873c-4.5653 3.5911-4.6259 6.6354-0.21289 10.781l3.4414 3.2324h7.8926c4.3409 0 7.8926 0.38499 7.8926 0.85743 0 0.47245 1.7396 2.7224 3.8672 5 3.8999 4.1748 6.1426 4.9417 9.0488 3.0938 2.6242-1.6686 4.6453-8.6535 3.8027-13.145l-0.79296-4.2187 5.0371-2.4609c3.7818-1.8476 5.1442-3.3952 5.4668-6.209 0.5277-4.6022-1.4442-7.1576-6.3555-8.2363l-3.7422-0.82031-0.72071-5.3691c-0.8014-5.9748-4.1271-10.492-7.7226-10.492zm368.57 1.7578c-0.328 0.32801-0.1866 3.6861 0.3144 7.4629 0.501 3.7768 1.1929 6.5864 1.5371 6.2422s0.2028-3.7023-0.3144-7.4629c-0.5172-3.7606-1.2091-6.5702-1.5371-6.2422zm-368.77 0.32812 2.0684 1.7148c3.0306 2.5152 4.1511 9.2904 2.1543 13.021-2.1546 4.0259-1.1632 5.0214 3.0762 3.0898 4.1758-1.9026 9.0078 0.29635 9.0078 4.0996 0 2.6334-6.0175 6.6543-9.959 6.6543-1.6284 0-1.8774 0.8114-1.1211 3.666 1.0945 4.131 1.0657 8.7063-0.07227 11.672-1.9161 4.9932-10.182-0.23919-10.182-6.4453v-2.5156l-3.666 1.0938c-14.076 4.1932-25.723-5.2702-12.262-9.9629l4.127-1.4394-2.0996-2.998c-1.1549-1.6489-2.0996-4.363-2.0996-6.0332 0-2.3801 0.74831-3.0371 3.4609-3.0371 3.6118 0 11.205 3.8094 11.205 5.6211 0 0.57522 0.9 1.0449 2 1.0449 2.2642 0 2.6831-2.0866 0.66796-3.332-2.2364-1.3822-1.4877-9.5164 1.1797-12.811l2.5137-3.1035zm380.04 1.2461-1.0684 3.334c-0.5871 1.8333-1.0854 5.4333-1.1074 8l-0.0391 4.666 1.1465-2.666c0.6303-1.4667 1.1294-5.0667 1.1074-8l-0.039-5.334zm40.258 6.3867c-0.0084-1.2922-6.5592 9.2143-6.6172 10.613-0.0229 0.55 0.2459 1 0.5976 1 0.7769 0 6.0296-10.133 6.0196-11.613zm-9.4532 1.0059c-0.2643-0.31062-0.9758 0.88039-2.4335 3.9414l-1.586 3.334 2.0723-2.5879c1.1405-1.4235 2.0742-3.1752 2.0742-3.8906 0-0.42352-0.0388-0.69333-0.127-0.79688zm-768.8 9.2285c-3.4554-0.12165-7.242 1.7445-12.812 5.5469l-8.0586 5.502-3.5781-4.3848c-2.4229-2.9686-4.2856-4.1124-5.7695-3.543-3.2481 1.2464-2.6582 6.8306 1.2051 11.422l3.3945 4.0352-2.5742 5.0664c-1.4159 2.7872-3.964 9.8677-5.6621 15.734l-3.0879 10.668-0.0664 17.332-0.06641 17.334 3.123 9.9473c2.2984 7.3193 4.4596 11.282 8.1777 15l5.0527 5.0527h7.0098c9.4154 0 17.347-4.0543 27.385-13.996 14.277-14.141 18.95-32.089 14.672-56.363-2.8582-16.219-9.1003-29.752-17.518-37.975-4.2459-4.148-7.3708-6.2573-10.826-6.3789zm-184.18 9.4883 7.5488 4.1894c13.264 7.361 18.885 11.674 18.885 14.492v2.6641l-5-0.91406c-2.75-0.50253-6.4017-1.4344-8.1133-2.0703-3.2532-1.2088-5.5547-0.53602-5.5547 1.623 0 0.69802 3.3274 2.9018 7.3945 4.8965l7.3965 3.627-0.39648 3.9375c-0.31083 3.0998-1.2456 4.1662-4.3945 5.0176-2.2938 0.62017-5.6485 0.51678-7.8652-0.24414-5.4684-1.8771-10.135-1.6522-10.135 0.48828 0 1.7421 12.896 7.5176 16.785 7.5176 2.3029 0 2.4228 1.5909 0.28125 3.7324-2.7666 2.7666-12.007 1.5634-23.066-3.0059l-10.666-4.4082 0.38281-4.4922c0.21042-2.4711 0.50978-6.9767 0.66602-10.012 0.16578-3.2199 1.3437-6.6926 2.8281-8.3379 1.3992-1.5508 2.9068-5.0473 3.3496-7.7715 0.59116-3.6369 1.9825-5.7473 5.2383-7.9414l4.4356-2.9883zm182.22 15.615c4.6479 2.2093 6.0395 20.97 1.7324 34.723-1.4548 4.6453-3.6858 9.5953-4.957 11-5.1401 5.6798-8.3299 2.5364-11.135-10.975-2.6971-12.992 3.2249-29.827 12.176-34.617 0.78984-0.4227 1.5196-0.44647 2.1836-0.13086zm768.38 0.28711c0.9624 0.43945 1.981 3.6379 4.3652 12.566 3.4287 12.84 4.6321 14.747 8.5235 13.512 4.3833-1.3912 4.447-5.8311 0.2031-14.238-3.7968-7.5214-5.3103-13.794-2.6816-11.117 2.5779 2.6254 9.4238 16.987 9.4238 19.771 0 1.5957-0.8814 4.1608-1.959 5.6992-3.8958 5.562-9.8513 4.6868-13.19-1.9375-2.4326-4.8272-6.716-22.846-5.6777-23.885 0.3563-0.35632 0.6714-0.51758 0.9922-0.3711zm-536.16 1.0625c0.61433-0.49219 1.1434-0.45812 1.6523 0.05079 1.0178 1.0178 0.93173 2.0294-0.29687 3.5098-1.1461 1.381-1.947 8.2401-2.3848 20.412l-0.66015 18.332 3.6289 4.3106 3.627 4.3106h-2.5801c-1.4182 0-3.7202-1.2628-5.1172-2.8066l-2.541-2.8066 0.0625-18.859 0.0625-18.859 2.3848-4.4863c0.84874-1.5966 1.5478-2.6152 2.1621-3.1074zm497.83 0.19532c1.1539 0.17767 2.2822 0.70992 3.2363 1.6641 0.88 0.88 1.5996 2.8604 1.5996 4.4004s-0.7196 3.5204-1.5996 4.4004c-3.4194 3.4194-10.4 0.60097-10.4-4.1992 0-4.1286 3.7024-6.7986 7.1641-6.2656zm22.518 1.7246c2.003-0.1461 4.0764 0.59803 5.5996 2.2812l2.4747 2.7363-1.5157 3.3281c-2.0019 4.3939-8.5208 4.6141-11.48 0.38867l-2.0586-2.9375 1.8008-2.7285c1.2437-1.885 3.1767-2.9223 5.1796-3.0684zm-20.422 0.59765-1.9375 2.5371-1.9375 2.5391-1.2871-1.9629c-1.9123-2.9163-3.2196-0.71213-1.4922 2.5156 1.7454 3.2613 2.6869 3.4124 6.0234 0.97266 1.6284-1.191 2.1572-2.6251 1.5508-4.2051l-0.9199-2.3965zm22.398 1.3828c-0.3674 0.25728-0.609 0.86521-0.7676 1.8535-0.3178 1.981-1.1641 2.5719-3 2.0918-2.4813-0.6489-3.5607 1.6326-1.6679 3.5254 0.4889 0.48889 2.2775 0.88867 3.9746 0.88867 3.7369 0 6.0198-6.2084 2.9824-8.1094-0.6616-0.41404-1.1541-0.50727-1.5215-0.25zm-459.32 3.2676 3 0.42578 0.39844 9.2344c0.78252 18.084-2.6528 30.589-11.32 41.201l-3.0781 3.7676-0.11718 10.232c-0.06387 5.6271-0.6336 15.331-1.2656 21.564-0.63203 6.2333-1.7412 18.233-2.4648 26.666-1.6129 18.798-8.6355 60.301-11.281 66.666-1.0668 2.5667-2.3626 8.6514-2.8789 13.521l-0.93945 8.8555-5.3125 3.4785c-2.9223 1.9133-5.7092 3.4467-6.1934 3.4082-3.275-0.26017-15.553-13.866-19.947-22.105-0.86811-1.6277-0.90634-8.4992-0.11132-19.824 1.1945-17.016 3.6801-70.67 4.7773-103.12l0.55664-16.459 3.082 0.77343c5.8922 1.4788 29.469 2.255 36.086 1.1875l6.6582-1.0742 4.2285-6.4609c4.2613-6.5124 4.9445-9.6757 6.4297-29.715 0.47376-6.3923 0.17549-8.3737-1.3496-8.959-3.0924-1.1867-2.2779-3.7314 1.043-3.2598zm422.2 1.9785c1.4593-0.26306 1.9653 1.2122 0.9629 3.8242-0.8984 2.3415-2.9777 2.5448-4.291 0.41992-0.5223-0.84519 0.1844-2.3641 1.5722-3.3789 0.6775-0.49608 1.2695-0.77754 1.7559-0.86523zm-132.46 7.1133c-0.32337 0-0.95888 0.60065-1.4121 1.334-0.45323 0.73333-0.18872 1.332 0.58789 1.332s1.4121-0.59871 1.4121-1.332-0.26451-1.334-0.5879-1.334zm-330.63 8.8106c1.3772 0.19461 3.3984 1.232 5.9766 3.0996l5.5254 4.002 5.1406-2.623c5.7409-2.9288 7.9141-3.2767 7.9141-1.2676 0 0.7452-2.0994 2.3561-4.666 3.5801-5.4165 2.5829-5.5927 3.1471-2 6.3984 1.4667 1.3273 2.666 3.2207 2.666 4.207 0 2.7214-1.8554 2.1615-5.4219-1.6348-3.1797-3.3847-4.1721-3.4868-11.578-1.1914-4.2014 1.3022-3.8977-1.772 0.33398-3.3809 4.5155-1.7168 4.1941-3.0963-1.334-5.7324-2.5667-1.224-4.666-2.7981-4.666-3.5 0-1.5033 0.73217-2.1516 2.1094-1.957zm-231.03 6.5234 0.55664 2.3242c0.91882 3.8389-2.2525 16.514-5.832 23.309-4.3788 8.3118-10.201 14.286-18.633 19.119-3.7559 2.153-8.3238 3.9141-10.152 3.9141-7.4153 0-12.455-7.9113-15.5-24.334-0.64586-3.4833-0.80103-6.3254-0.3457-6.3164 0.45532 0.00908 2.1334 2.0354 3.7305 4.502 3.1992 4.9409 12.564 10.148 18.25 10.148 2.0049 0 5.338-0.87579 7.4062-1.9453 6.0073-3.1065 15.915-15.045 17.578-21.182 0.8256-3.0468 1.8243-6.4391 2.2207-7.5391l0.7207-2zm1022.3 10.18c2.0597-0.04837 3.0636 0.71592 4.459 2.2578 4.1965 4.6373 1.674 14.981-4.75 19.48-4.6397 3.2498-12.571 2.6751-16.438-1.1914-2.4936-2.4937-3.2735-4.6841-3.2735-9.2031v-5.9316l9.207-2.7969c5.6188-1.7066 8.7352-2.5669 10.795-2.6152zm-731.04 2.1387 1.8535 0.61328c1.2875 0.42592 2.1225 4.0431 2.7324 11.84 0.86104 11.006 3.2743 21.941 6.5957 29.895l1.6699 4 0.45313-2.666c0.24954-1.4667 0.89151-8.0179 1.4277-14.559 0.53623-6.5407 1.5753-12.089 2.3086-12.328 0.73332-0.23963 2.4351 2.2423 3.7812 5.5156 3.1201 7.5868 11.203 15.942 17.402 17.988 5.3152 1.7542 7.0806 6.2606 1.8164 4.6367-6.1456-1.8958-10.17-4.661-15.348-10.543-2.9264-3.3246-5.6948-6.0449-6.1523-6.0449s-0.84087 4.3494-0.85157 9.666c-0.01001 5.3167-0.38008 11.018-0.82226 12.668-3.1904 11.905-13.69-14.255-15.902-39.621l-0.96484-11.061zm725.06 1.6816c-5.8569 0-9.5228 6.6275-5.7519 10.398 3.2783 3.2783 13.066 0.63321 13.066-3.5312 0-2.619-4.5256-6.8672-7.3145-6.8672zm-26.473 2.9356 9.1211 0.39649 0.4004 6.9609c0.221 3.828-0.2501 8.1774-1.0469 9.666-2.6388 4.9308-18.008 2.3675-21.09-3.5176-1.6024-3.06-0.5432-10.55 1.7617-12.463 0.9856-0.818 5.6725-1.2685 10.854-1.043zm-0.1953 2.2969c-1.937-0.0214-3.8716 1.1182-4.9238 3.4277l-1.5176 3.3281 2.4726 2.7305c4.8726 5.3843 11.926 0.67406 8.9082-5.9492-1.0629-2.3329-3.0024-3.5157-4.9394-3.5371zm182.19 2.6172c-0.6303 0.08195 0.1849 1.3812 2.8145 3.8516 4.188 3.9344 13.954 8.0454 22.476 9.4609 10.046 1.6687 18.506 1.7465 18.506 0.16993 0-0.75852-3.9198-1.332-9.0918-1.332-11.675 0-21.239-2.8822-28.852-8.6934-3.148-2.403-5.2232-3.539-5.8535-3.457zm-1082.9 18.893c-1.4725 0.11652-3.0345 0.8421-4.1035 2.1328-2.7507 3.3214-19.187 10.801-27.549 12.537-11.261 2.3378-24.769 1.1808-28.637-2.4531-3.6805-3.4577-5.3816-3.6866-7.5918-1.0234-3.7482 4.5163 2.0964 9.7406 15.197 13.586l3.916 1.1504 2.8555 11.33c7.4791 29.674 13.747 42.714 21.979 45.723 13.254 4.845 24.247-8.4858 27.262-33.059 1.2069-9.8362 1.3878-46.536 0.23828-48.396-0.71067-1.1499-2.0939-1.6439-3.5664-1.5274zm1084.6 1.3125c-0.5786 0.03215-0.4858 0.5357 0.4765 1.498 0.8538 0.85395 5.6234 2.6013 10.6 3.8828 4.976 1.2815 11.146 2.3215 13.713 2.3125 2.8782-0.00988 0.1977-0.96751-6.9961-2.5-6.4148-1.3666-12.826-3.1071-14.246-3.8672-1.7196-0.92028-2.9683-1.3583-3.5468-1.3262zm-1090.1 13.943c1.0551 1.0551-6.5778 8.6301-11.047 10.963-4.7143 2.4607-21.532 3.6406-22.793 1.5996-1.2957-2.0965-0.44214-2.5186 10.707-5.3047 5.6286-1.4066 12.98-3.7715 16.336-5.2559 3.3556-1.4843 6.4137-2.3852 6.7969-2.002zm364.59 5.0176c-0.83252 0.00625-1.8212 0.33634-2.9883 0.96094-7.6036 4.0693-6.7966 27.695 1.0898 31.916 3.897 2.0856 10.46 1.7677 14.207-0.6875l3.248-2.127 3.5527 2.793c9.6828 7.6165 20.53-0.91532 20.52-16.139-0.0093-13.195-9.5211-22.131-10.35-9.7227-0.59609 8.927-1.5029 11.322-4.2891 11.322-3.2258 0-5.6533-4.2824-4.707-8.3047 0.9782-4.158-0.99344-6.6826-4.7988-6.1445-2.4428 0.34539-3.2682 1.379-3.5488 4.4492-0.77645 8.495-1.5914 10.193-4.6816 9.7539l-2.9531-0.41992-0.39258-8.2148c-0.31476-6.5642-1.4106-9.4543-3.9082-9.4356zm78.135 3.6816c-4.2903-0.13957-8.8675 1.5116-12.537 5.3418l-3.8398 4.0059-1.0469 16.621 3.0156 3.8242c1.6588 2.103 4.8667 4.6283 7.1289 5.6133 4.4994 1.959 8.731 2.3419 12.004 1.0859 2.8734-1.1026 2.6753-4.5234-0.26172-4.5234-2.783 0-8.2969-3.5938-8.2969-5.4082 0-0.69176 2.3199-1.2578 5.1543-1.2578 3.1947 0 6.4882-1.0506 8.666-2.7637l3.5137-2.7637v-5.9648c0-8.3731-6.3495-13.578-13.5-13.811zm103.62 5.3027c-4.21 0-6.1219 3.4245-6.0918 10.912 0.0274 6.7941 3.1693 22.423 5.3145 26.432 1.0719 2.0028 2.5422 2.6962 5.0859 2.4024l3.5762-0.41406-0.1387-14.666c-0.1661-17.548-2.4013-24.666-7.7461-24.666zm-104.84 4.207c4.1923-0.59422 7.1713 3.1403 5.2969 6.6426-1.5858 2.963-5.6096 3.2436-7.8477 0.54688-2.4373-2.9367-1.1133-6.6701 2.5508-7.1894zm278.82 1.2871c-5.9766-0.39033-12.368 2.2597-15.191 8.209-4.5008 9.4847-1.8816 20.109 6.168 25.018 4.6703 2.8477 11.647 3.3957 15.689 1.2324 4.0169-2.1498 3.0744-3.6987-2.9824-4.8965-7.6353-1.5099-7.6914-3.544-0.1602-5.8144 7.7912-2.3489 10.541-6.4582 9.1797-13.717-1.1649-6.2098-6.7265-9.6409-12.703-10.031zm-114.97 0.23243c-10.145 1.3607-16.105 11.163-13.246 21.781 1.6449 6.1087 4.7595 9.4602 10.322 11.107 6.3246 1.8729 15.221-1.1658 18.625-6.3613 2.8376-4.3308 3.1388-13.359 0.6035-18.098-3.0536-5.7073-9.9652-9.28-16.305-8.4297zm72.775 2.2734c-3.8391 0-6.5033 3.8118-8.6328 12.355-0.8713 3.4958-2.076 6.6593-2.6778 7.0312-0.6018 0.37194-2.6344-1.9502-4.5156-5.1602-4.5017-7.6815-7.8215-10.54-11.619-10.002-7.6017 1.0767-3.0092 15.467 8.1543 25.553 6.0267 5.4448 11.63 6.391 15.105 2.5508 3.9509-4.3658 8.9382-16.931 8.9512-22.553 0.0178-7.5825-1.0515-9.7754-4.7656-9.7754zm155.55 2.666c-7.8619 0-13.733 4.1559-16.129 11.416l-1.539 4.6621-4.3028-0.80859c-6.8563-1.2863-10.488 5.9715-4.4648 8.9219 1.2833 0.6286 3.3669 1.6478 4.6309 2.2656 1.7342 0.8475 2.2021 2.4733 1.9023 6.627l-0.3984 5.5059 3.3593 3.3574c4.8476 4.8476 7.2912 3.2559 7.7735-5.0645l0.3984-6.8828 6.8184 0.35547c4.5609 0.2379 7.3285-0.25833 8.3574-1.498 2.2163-2.6704 0.4281-6.0881-3.6563-6.9922-7.1176-1.5755-8.1855-2.0819-8.1855-3.8789 0-2.7637 5.3984-5.9863 10.029-5.9863 7.1326 0 9.4019-4.5687 4.6367-9.334-1.9445-1.9445-4.4439-2.666-9.2305-2.666zm293.64 1.334c-5.1811 0-11.076 4.9106-11.076 9.2266 0 1.4745 1.8 4.7307 4 7.2363 2.2 2.5056 4 5.5264 4 6.7129 0 3.0347-3.6224 2.6884-5.334-0.50977-0.785-1.4667-2.6059-2.666-4.0469-2.666-1.9822 0-2.6191 0.91023-2.6191 3.7441 0 4.1314 1.9364 7.1602 6 9.3828 3.7261 2.038 11.678 1.8906 14.635-0.27149 3.3511-2.4503 3.1604-8.8598-0.4121-13.877-2.8754-4.038-3.8291-8.3125-1.8536-8.3125 0.5701 0 2.3986 0.95374 4.0625 2.1191 4.1342 2.8958 7.1885 1.4884 6.6582-3.0684-0.5405-4.6436-7.8575-9.7168-14.014-9.7168zm-253.08 2-2.5234 5.168c-3.5738 7.3193-4.4255 21.795-1.6036 27.252 2.8813 5.5718 6.9687 5.6972 8.0215 0.24609 0.4249-2.2 1.1243-5.8201 1.5547-8.0449 0.4304-2.2248 2.2402-5.0008 4.0215-6.168l3.2383-2.1211 5.873 1.6445c6.5649 1.8381 8.752 1.1353 8.752-2.8106 0-6.8901-8.1419-11.902-15.061-9.2715l-3.4414 1.3086-0.416-3.6016-0.416-3.6016h-4-4zm-153.56 0.3086c3.1523 0.80377 4.9531 5.0957 1.959 8.0898-0.88 0.88-2.2597 1.6016-3.0664 1.6016-4.4145 0-6.2256-6.9962-2.3692-9.1543 1.2235-0.68469 2.4258-0.80503 3.4766-0.53711zm213.29 0.34375c-2.5395 0.10215-5.01 1.1086-6.3184 2.9766-2.8476 4.0655-2.6163 5.9501 1.1973 9.7637 3.7839 3.7838 6.9215 4.1223 11.098 1.1973 3.5423-2.4811 3.9073-8.0062 0.7578-11.486-1.585-1.7515-4.1949-2.5533-6.7343-2.4512zm86.642 0.35742c-1.464 0.30407-3.1175 1.8595-4.7304 4.6211-3.6486 6.2474-4.7469 23.146-1.7969 27.648 2.3517 3.5891 5.9253 4.505 6.7148 1.7207 0.2598-0.91666 1.1437-4.1475 1.9649-7.1797 1.7018-6.2838 5.0442-7.9765 9.539-4.8281l2.9024 2.0332-0.8672 6.5293c-0.4762 3.5921-0.5068 7.1129-0.0684 7.8223 1.6807 2.7192 6.085 1.1689 8.6543-3.0449 3.0335-4.9753 3.5794-16.171 1.0586-21.703-1.9903-4.3682-7.4906-7.2969-13.707-7.2969h-4.7656l-1.3047-3.4297c-0.8551-2.249-2.1297-3.1966-3.5938-2.8926zm65.631 3.1738-2.1484 0.82422 0.8984 7.1894 0.8965 7.1894-3.5762-1.3613c-9.5994-3.6497-17.702 0.6723-18.969 10.117-0.8864 6.6093 0.9452 10.445 6.6504 13.924 6.3926 3.8978 14.599 3.451 19.586-1.0664 7.666-6.9446 8.8425-27.609 1.9629-34.488-1.9224-1.9224-3.9906-2.8309-5.3008-2.3281zm-478.17 0.48242c4.8735 0 7.4476 6.8572 3.9043 10.4-3.2772 3.2772-10.398 0.26334-10.398-4.4004 0-2.5393 3.7452-6 6.4941-6zm367.55 6.0312c-1.7462 0.02927-3.5724 0.33198-5.4395 0.95703-15.701 5.2564-15.546 29.533 0.2207 34.314 7.863 2.3848 11.472-1.035 4.7559-4.5078-2.158-1.1159-4.3008-3.0086-4.7598-4.2051l-0.834-2.1758 6.6524 0.91602 6.6543 0.91406 4.0195-4.0195c9.2413-9.2413 0.9533-22.398-11.27-22.193zm-46.068 8.7188c-1.772 0.38494-3.4322 1.6211-4.4219 3.584-2.6801 5.3154-3.8364 14.645-2.1953 17.711 0.8238 1.5394 2.7859 2.6211 4.7539 2.6211 2.6506 0 3.8895-1.1844 5.9238-5.666 2.9184-6.4293 3.4073-14.356 1.0313-16.732-1.436-1.4359-3.3198-1.9025-5.0918-1.5176zm47.357 0.58398c2.9884 0 5.3569 3.61 4.2539 6.4844-0.4736 1.2343-2.3203 2.1816-4.2539 2.1816-3.8878 0-5.7694-3.2844-3.7324-6.5137 0.7466-1.1837 2.4256-2.1524 3.7324-2.1524zm100.19 5.2754c0.8078-0.1332 1.6144-0.08906 2.33 0.18554 2.8365 1.0885 4.0299 5.6049 2.0957 7.9356-3.1451 3.7896-9.2812 1.3983-9.2812-3.6172 0-2.1141 2.4319-4.1043 4.8555-4.5039zm-1130.6 38.654c0.22467 0.16699 0.34997 0.51026 0.32422 0.99024-0.05153 0.95994-0.60804 2.9454-1.2383 4.4121l-1.1465 2.668-0.09375-3.5879c-0.05155-1.9734 0.50691-3.9589 1.2402-4.4121 0.36667-0.22661 0.68939-0.2373 0.91407-0.07031zm3.8262 0.96094c0.2002-0.2429 7.4652 1.6659 16.145 4.2402 8.6793 2.5743 17.971 5.1715 20.646 5.7734l4.8633 1.0957 7.1367 10.65c8.9702 13.391 13.647 16.685 23.666 16.672 10.328-0.01394 23.753-2.3508 30.127-5.2441 2.9378-1.3335 9.677-6.1136 14.977-10.623l9.6367-8.1992 7.6973-1.3535c11.991-2.1068 22.203-4.1816 24.031-4.8828 1.2433-0.47692 1.6809 2.0231 1.7246 9.8379 0.05894 10.545 1.544 24.459 3.6953 34.643 2.7487 13.011 12.179 19.546 28.447 19.711l10.201 0.10352-0.20117 23c-0.11054 12.651-0.40459 23.006-0.6543 23.01-0.2497 0.00442-3.7752-2.8294-7.834-6.2969l-7.3789-6.3047-44.334-0.54297-18.666 3.1465c-22.076 3.7217-44.701 5.8935-76.666 7.3574-35.185 1.6114-67.671 2.1627-70.312 1.1934-1.2948-0.47512-8.6555-1.5615-16.355-2.4141-14.145-1.5661-20-3.3453-20-6.0742 0-0.82103 1.2378-3.8684 2.75-6.7734 1.5122-2.9051 5.6934-12.706 9.291-21.779 3.5977-9.0731 9.6855-23.624 13.529-32.334l6.9883-15.836h3.0977c5.457 0 12.207-3.7115 15.012-8.2539 1.4991-2.4275 3.9967-8.6128 5.5508-13.746 1.5541-5.1333 2.9892-9.5325 3.1894-9.7754zm165.26 6.0078c0.71352-0.01464 1.6328 6.1256 2.2148 18.434 0.56062 11.854 1.6778 20.858 3.0586 24.668 2.6102 7.2025 10.271 15.422 16.195 17.377l4.3027 1.4199 5.1133-2.3281c2.8129-1.2808 5.5652-2.5606 6.1152-2.8438 0.55-0.28312 1 0.70787 1 2.2012 0 2.0017-1.3138 3.0798-5 4.1035-7.7284 2.1463-12.559 1.4458-21.33-3.0898-8.852-4.5775-12.124-15.301-12.645-41.441-0.24545-12.315 0.26109-18.485 0.9746-18.5zm-117.43 5.7676c1.1336 0 5.0502 2.9756 8.7051 6.6113 10.142 10.089 12.219 11.1 22.623 11.035 9.8608-0.06174 17.167-2.5776 27.262-9.3906 5.7279-3.8657 14.172-6.4774 14.172-4.3828 0 2.4223-18.011 14.891-24.139 16.711-3.5482 1.0537-12.035 2.327-18.861 2.8281l-12.412 0.91016-4.3691-3.6758c-3.6423-3.0648-8.0434-9.0163-14.039-18.98-0.63004-1.047-0.23625-1.666 1.0586-1.666zm-55.549 1.0664c0.90404 2.7121-5.0943 12.237-8.9688 14.24-4.2174 2.1809-8.6412 2.7249-7.5293 0.92578 0.37452-0.60599 3.0475-2.1705 5.9395-3.4746 3.804-1.7154 5.925-3.8524 7.6738-7.7305 1.3295-2.9483 2.628-4.7312 2.8848-3.9609zm88.107 2.6973c9.3131 0.32511 18.786 0.96109 19.424 1.5957 0.73433 0.73042-2.1838 2.8233-7.334 5.2598-9.2452 4.3737-15.508 4.9778-22.049 2.1309-3.6056-1.5692-8.4989-6.5816-8.5059-8.7129-0.00196-0.61241 9.1518-0.59855 18.465-0.27344zm-49.299 12.396c-5.312-0.46983-10.498 3.0774-10.498 8.5059 0 2.5798-0.68494 3.334-3.0352 3.334-6.8885 0-11.854 7.583-6.8125 10.404l2.1523 1.2051-1.4863 2.7734c-2.1761 4.066-1.8456 12.99 0.55468 14.982 2.0879 1.7328 4.7557 0.96342 10.172-2.9375l2.209-1.5918 3.6816 4.375c2.0246 2.4062 4.9306 4.8805 6.457 5.498 8.8162 3.5666 12.496-2.5602 8.1406-13.551-0.63091-1.5919 0.21802-2.5504 3.1719-3.5801 5.0881-1.7737 6.6642-6.878 3.5781-11.588-1.1977-1.828-3.2679-3.3242-4.6016-3.3242-1.6701 0-2.9192-1.6451-4.0098-5.2852-0.8709-2.9068-2.8995-6.2055-4.5078-7.332-1.6114-1.1287-3.3954-1.7321-5.166-1.8887zm-0.13281 2.7422c0.85391 0.14253 1.748 0.44441 2.6621 0.9336 3.6426 1.9495 6.421 8.9489 4.4805 11.287-2.0656 2.4889-0.53303 3.5488 3.8613 2.6699 2.8459-0.56918 4.0594-0.1063 5.1699 1.9688 2.668 4.9853 0.04224 7.7122-6.8711 7.1328-2.8634-0.23996-2.8794 0.36429-0.20117 8.2246 1.1734 3.4438 1.7921 7.1514 1.375 8.2383-1.7656 4.601-10.524-0.67707-13.688-8.248-1.021-2.4436-2.0876-4.4434-2.3711-4.4434-0.28349 0-2.6598 2.1462-5.2812 4.7676-2.6214 2.6214-5.3829 4.3846-6.1348 3.9199-2.3146-1.4305-1.5124-9.4744 1.3008-13.051 3.5509-4.5142 3.3604-6.3027-0.66796-6.3027-4.264 0-4.2937-2.2854-0.05469-4.2168l3.2793-1.4941 3.4961 2.2891c1.9226 1.2598 4.4373 1.9298 5.5879 1.4883l2.0918-0.80274-3.0293-3.2246c-4.9857-5.3071-0.9832-12.134 4.9941-11.137zm-46.797 22.369c-3.6038-0.66726-8.2194 1.5446-11.57 7.0547l-2.5273 4.1543-5.0684 0.09375-5.0684 0.0918-0.4082 7.1621c-0.22474 3.939-1.3139 8.5424-2.4199 10.23-2.5825 3.9414-2.7963 11.159-0.37891 12.803 1.0302 0.70053 5.0149 0.98821 8.8535 0.63867l6.9785-0.63672 2.6445 3.7148c1.4547 2.043 4.6148 4.6849 7.0215 5.8711 2.4066 1.1862 4.9756 2.161 5.709 2.166 4.2921 0.032 7.334-6.3416 7.334-15.369 0-3.6702 0.59894-5.9121 1.5801-5.9121 2.621 0 7.752-5.6136 7.752-8.4805 0-4.5172-5.2065-8.8535-10.631-8.8535h-4.834l0.52735-4.5156c0.70055-6.0008-1.8904-9.5456-5.4941-10.213zm0.20117 2.8789c0.66507 0.17195 1.2413 0.56589 1.6816 1.2305 1.2847 1.9391 1.0081 5.8363-0.82617 11.662l-0.95704 3.041 5.5781-0.89062c12.681-2.0278 16.719 8.3349 4.6719 11.992l-2.75 0.83593 0.04883 7.8262c0.02879 4.6673-0.67729 8.6981-1.748 9.9883-0.98751 1.1899-2.1707 2.1546-2.6309 2.1426-2.5902-0.06953-9.6025-6.0467-11.096-9.457-1.3377-3.0552-2.3597-3.796-4.4082-3.1973-11.573 3.3822-16.073 1.8619-13.799-4.6621 0.73637-2.1123 2.1036-4.4756 3.0391-5.252 1.1391-0.94542 1.4896-3.6133 1.0606-8.0781l-0.64062-6.666h2.7266c1.4988 0 3.8839 1.592 5.3008 3.5371 2.9455 4.0436 6.636 3.347 4.0664-0.76757-2.9722-4.7592 6.0261-14.489 10.682-13.285zm345.62 22.516-2.8281 5.5449c-5.1404 10.076-6.8693 18.573-7.2324 35.566-0.21069 9.86-0.94742 17.041-1.8398 17.934-0.81862 0.81861-1.4883 2.5346-1.4883 3.8125s-2.0961 8.7236-4.6582 16.545c-6.7287 20.541-6.9387 33.327-0.98633 59.932 1.9074 8.5251 6.0518 16.671 13.434 26.404 3.7834 4.9888 6.8789 9.3382 6.8789 9.666 0 0.32783-2.141 0.59571-4.7559 0.59571-4.8834 0-9.8278 1.9397-11.557 4.5332-1.2254 1.8382 0.17906 10.055 2.2285 13.041 1.4073 2.0501 8.0376 7.4192 23.084 18.693 6.3586 4.7645 6.5092 5.5214 3.793 19.066-1.0294 5.1333-2.2658 12.176-2.7461 15.65-0.9954 7.2008-3.4706 10.35-8.1387 10.35-5.7092 0-20.424 7.8418-22.596 12.041-2.2922 4.4326-2.5938 10.088-0.60351 11.318 0.75672 0.46769 7.2054 1.7268 14.332 2.7969 12.146 1.8237 33.764 6.6125 55.904 12.385 5.287 1.3784 16.386 4.9268 24.666 7.8867s18.162 6.3798 21.961 7.5996c7.8306 2.5146 9.5758 5.0862 13.215 19.479 2.2263 8.8049 6.1274 16.501 8.9297 17.615 2.1053 0.83675 6.1802-0.24646 10.002-2.6582 3.5385-2.233 5.7533-7.0246 8.8438-19.129 1.217-4.7666 3.0541-11.716 4.082-15.441 1.9872-7.2016 3.3496-16.089 3.9668-25.893 0.20775-3.3 0.45413-6.667 0.54883-7.4824 0.09466-0.81538 3.9225-1.8789 8.5059-2.3633 14.743-1.558 25.044-6.1408 36.068-16.047 5.4237-4.8735 10.532-10.19 11.354-11.816 3.7261-7.3772 7.0899-18.377 8.1719-26.719 2.0318-15.666-3.4103-25.637-13.463-24.664l-4.3906 0.42578-1.7695 6.666c-3.135 11.809-14.122 35.602-18.42 39.893-4.9163 4.907-17.119 12.358-23 14.045l-4.2168 1.209-0.15625-6.9062c-0.3587-15.993-0.9502-20.738-3.75-30.035-1.6223-5.3869-2.7568-9.9505-2.5215-10.143 0.2353-0.19207 7.9271-4.0104 17.094-8.4844l16.666-8.1348 9.4726-10.414c5.2101-5.7274 10.505-12.406 11.766-14.844 3.0722-5.9411 8.4419-23.062 10.1-32.203 3.0224-16.667 1.1805-44.244-3.9492-59.154-1.741-5.0603-2.0139-7.7117-1.0469-10.17 1.5746-4.0024 2.0764-36.498 0.64258-41.619-1.4045-5.0168-5.3998-6.7577-15.594-6.791-8.7096-0.0285-18.476 2.5454-25.58 6.7422l-3.7168 2.1953-5.7129-2.8262c-9.733-4.8164-32.084-13.468-38.383-14.855-11.626-2.5614-24.643-3.1229-35.34-1.5274-10.62 1.5842-28.88 6.7995-35.447 10.125l-3.457 1.75-6.543-6.7461c-6.9653-7.1801-20.125-14.436-26.184-14.438l-3.6387-0.00195zm4.9805 6.668c4.1234 0 13.09 5.3466 18.908 11.275 3.2395 3.3008 5.6276 6.1848 5.3066 6.4102-0.32093 0.22535-3.8827 2.5613-7.916 5.1894-4.0333 2.6282-11.477 8.5952-16.541 13.26l-9.207 8.4805 0.77734-13.975c0.87924-15.805 5.0781-30.641 8.6719-30.641zm82.217 8.0645c7.5642-0.26315 14.714 0.37087 21.031 2.0078 9.7564 2.5281 36.259 13.199 40.963 16.492 1.8808 1.3167 5.7288 3.4741 8.5508 4.7949 9.4612 4.4283 29.774 26.927 34.887 38.641 5.2812 12.1 8.0122 37.73 5.8027 54.455-1.3264 10.041-8.2566 33.131-11.215 37.365-0.95591 1.3681-5.5336 6.6892-10.172 11.824l-8.4336 9.3359-14.498 7.1758c-7.9748 3.9469-15.118 7.1758-15.873 7.1758-0.75489 0-3.4934-2.4771-6.0859-5.5059-4.9656-5.8012-11.159-9.1602-16.893-9.1602-4.7613 0-9.9824 5.5565-9.9824 10.623v4.0762l-13.668-0.25586c-28.082-0.52598-44.104-4.8752-65.922-17.895-12.612-7.5259-18.829-13.509-28.924-27.838-7.7275-10.968-10.531-19.069-12.916-37.316-1.9787-15.139-1.0294-24.032 4.1504-38.879 2.2734-6.5164 4.5408-13.504 5.0391-15.527 1.0204-4.1445 16.135-20.125 26.24-27.744 18.809-14.181 45.225-23.056 67.918-23.846zm97.74 10.74c1.9253-0.05424 3.6038 0.05696 4.832 0.36524 3.9452 0.9902 5.2325 6.3953 5.0059 21.041-0.08692 5.6161-0.63624 11.504-1.2207 13.084l-1.0645 2.873-7.2383-8.418c-8.8355-10.274-15.398-16.62-20.475-19.795l-3.834-2.3984 5.5703-2.6914c4.6584-2.2507 12.648-3.8978 18.424-4.0606zm433.74 19.861-1.8867 3c-2.6851 4.2705-3.8146 14.038-3.6426 31.496l0.1485 15.162-9.7696 9.5039c-11.435 11.124-14.837 17.636-18.549 35.504-4.3629 21.004-1.5969 39.384 9.4375 62.713 2.2667 4.7922 5.9135 10.431 8.1035 12.529l3.9805 3.8145-1.3594 2.5391c-2.5537 4.7716-1.3767 22.2 2.502 37.072 2.7855 10.68 8.3908 17.332 14.604 17.332h3.0351l-0.0625 3.668c-0.0504 2.89-1.6335 4.7916-7.4726 8.9785-9.9092 7.1054-13.882 8.6166-25.164 9.5703l-9.5508 0.80664-9.207-3.002c-5.0646-1.6514-13.236-5.1467-18.158-7.7656l-8.9492-4.7617-2.5781 2.334c-4.8553 4.3939-4.2445 13.762 1.6035 24.623 4.8617 9.0291 22.663 12.75 45.772 9.5664 15.895-2.1895 23.215-4.7168 29.67-10.242l5.4316-4.6484 0.0195 2.4356c0.0483 6.0725 5.9206 19.132 12.943 28.785l4.6191 6.3477 0.2754 11.652c0.152 6.409 1.0183 13.002 1.9239 14.652 3.0929 5.6351 7.4769 3.8884 19.982-7.9629 6.3629-6.0301 13.37-13.515 15.57-16.633s4.9-5.9438 6-6.2812c2.0059-0.61541 20.707-1.3038 26.332-0.96875 2.2768 0.13563 3 0.99637 3 3.5664 0 1.8626 1.2869 5.9126 2.8594 9 6.4352 12.635 13.288 18.594 23.246 20.217 7.3935 1.2049 8.6607-0.65095 8.3496-12.232l-0.25-9.3086 3.166-4.5312c1.7414-2.4919 6.0286-7.8589 9.5274-11.926 7.7317-8.9869 10.441-16.107 9.873-25.943-0.2345-4.0621 0.096-7.707 0.7344-8.1016s1.1621-1.9246 1.1621-3.4004c0-2.7475 2.8775-6.4941 4.9883-6.4941 0.6484 0 3.9878-2.5494 7.4219-5.666 10.403-9.4416 13.553-25.102 6.9921-34.77-3.8262-5.638-11.08-12.499-14.402-13.621-3.5233-1.1901-2.8593-2.4898 2.9414-5.75 4.9452-2.7793 12.08-10.326 20.609-21.799 13.975-18.797 14.975-63.171 1.9961-88.629l-2.4453-4.7969 3.2617-5.5664c1.794-3.0614 4.4609-10.329 5.9277-16.15 6.3633-25.256 1.4791-33.258-18.354-30.064-9.6525 1.5545-14.852 3.7141-24.199 10.057l-7.2598 4.9277-10.365-4.0957c-14.079-5.5637-30.156-9.3403-43.861-10.303-11.897-0.83546-38.061 1.6337-39.346 3.7129-1.7376 2.8118-6.5374 0.71028-12.602-5.5156-8.7259-8.9585-20.726-14.634-30.941-14.635l-7.6348-0.00195zm-141.96 0.0332c-9.6606-0.30291-22.958 3.4948-31.061 9.6172l-4.2969 3.2461-8.3691-1.7539c-4.748-0.99488-17.128-1.7656-28.607-1.7812-27.011-0.0371-44.936 2.5223-59.865 8.5488l-5.4375 2.1953-8.0665-5.3887c-4.4373-2.9632-10.692-6.3286-13.898-7.4805-6.3283-2.2736-23.274-3.0085-25.146-1.0898-2.3774 2.4364-6.7623 15.673-7.9355 23.957-1.2677 8.9522 0.8242 29.443 3.7734 36.963l1.4629 3.7324-2.7383 8.1309c-3.9 11.577-4.5527 24.582-2.0703 41.291 2.4826 16.711 4.4958 23.17 11.961 38.393 5.3634 10.937 17.818 25.759 25.898 30.82l3.0351 1.9004-2.7011 7.6328c-1.4858 4.1983-2.7012 9.9578-2.7012 12.799 0 2.841-0.3871 9.7374-0.8594 15.324l-0.8574 10.156-8.8086 3.2539c-12.518 4.6229-14.65 4.9265-24.041 3.4141-9.0352-1.4551-21.398-7.0479-26.768-12.107-1.8333-1.7274-5.7166-7.2454-8.6309-12.264-10.26-17.667-19.581-21.621-25.646-10.877-1.6561 2.9333-3.0212 7.4896-3.0332 10.123-0.06211 13.559 9.96 30.674 24.469 41.787 13.888 10.638 18.047 11.899 39.51 11.98l18 0.06836 14-7.3359v10.438c0 17.575 7.998 41.242 16.971 50.215 3.6339 3.6339 5.8303 4.1276 9.543 2.1406 2.4221-1.2963 6.0289-8.6438 7.4296-15.139 0.4417-2.0481 1.8342-4.0533 3.0957-4.4551 1.2614-0.40176 3.4944-1.2332 4.961-1.8477 5.4746-2.2934 34.626-11.701 46-14.846 9.8366-2.7193 22.722-5.3572 42-8.5996 11-1.8501 21.8-3.6984 24-4.1055 10.138-1.8759 13.397-11.994 5.8965-18.305-4.0693-3.4241-5.4003-3.9124-14.732-5.4043l-4.8339-0.77344-1.5645-6.3027c-0.8596-3.4671-2.1232-8.1183-2.8086-10.336-1.9773-6.3978-3.4907-19.665-2.6484-23.217 0.479-2.0199 2.7725-4.2885 6.0644-6 13.317-6.9238 26.388-18.633 28.734-25.744l1.4648-4.4434-2.0839-3.1797c-1.1465-1.7498-3.2661-3.557-4.711-4.0156l-2.6269-0.83398 8.7461-10.924c9.4888-11.849 10.103-13.039 13.896-26.945 6.1289-22.47 7.0356-29.751 5.2011-41.742-1.6504-10.787-3.9649-16.564-11.746-29.318l-5.9336-9.7285 2.8653-9.6543c5.6886-19.162 3.3735-35.8-5.6289-40.455-2.0849-1.0781-4.9009-1.6334-8.1211-1.7344zm-607.91 0.32813c0.33803 0.28784 0.66544 0.87619 1 1.748 2.3744 6.1875 0.7611 14.031-4.6445 22.59-2.9991 4.7487-5.6991 8.6348-6 8.6348-1.6489 0 1.507-14.757 5.7734-27 1.741-4.9958 2.857-6.8362 3.8711-5.9726zm752.77 6.3047h5.8945c3.6448 0 8.4053 1.2729 12.469 3.332 7.4192 3.7596 16.023 10.838 15.971 13.141-0.0189 0.84071-2.5682 2.6585-5.666 4.0391-3.0977 1.3806-10.889 5.7299-17.314 9.666-6.4252 3.9361-11.909 7.1562-12.186 7.1562-2.1004 0-2.121-21.593-0.0312-32.732l0.8633-4.6016zm-141.39 0.58593c2.6105 0.57214 4.2034 1.7497 5.207 3.625 2.254 4.2116 2.3593 16.853 0.2031 24.457-1.0397 3.6667-2.286 6.9851-2.7695 7.375-0.4834 0.38986-5.4119-3.9106-10.951-9.5566-5.5576-5.6647-12.885-11.634-16.352-13.318-3.4547-1.6784-6.0772-3.678-5.8262-4.4434 0.9661-2.9456 11.181-7.2785 19.176-8.1348 5.0736-0.54334 8.702-0.57604 11.312-0.00391zm-178.15 3.8711c8.3782 0.58237 23.158 5.6758 28.303 10.729l1.7246 1.6953-9.461 7.0352c-9.3732 6.97-19.326 17.714-25.176 27.18-1.6674 2.698-3.2462 4.9043-3.5098 4.9043-2.2072 0-4.9815-21.704-3.8262-29.938 0.96-6.8416 4.4398-18.181 6.295-20.516 0.7763-0.977 2.8576-1.284 5.6503-1.0898zm-694.7 0.21093c5.3544 0.06847 10.177 0.27618 13.947 0.64258 11.202 1.0887 29.809 4.7608 43.957 8.6738 4.0098 1.109 8.336 2.0156 9.6152 2.0156h2.3262l-0.79492 8.5273c-1.4487 15.513 2.1318 19.938 13.027 16.094 3.0451-1.0744 5.8407-1.9531 6.2109-1.9531 1.6824 0-12.909 10.61-17.658 12.84-5.3214 2.499-7.4396 6.2714-4.9316 8.7793 3.1163 3.1163 18.231-4.9364 28.453-15.158 2.8204-2.8204 5.1398-4.3776 5.1543-3.4609 0.06571 4.1462 2.8274 20.755 4.1016 24.666 1.0539 3.2348 2.1954 4.334 4.5 4.334 3.8012 0 4.9961-2.7458 3.3223-7.6289-1.4299-4.1718-3.7967-20.371-2.9766-20.371 0.29264 0 1.9862 1.7274 3.7637 3.8398 3.9476 4.6914 10.932 8.1602 16.434 8.1602 6.3507 0 8.6899-4.6364 7.8184-15.494l-0.70117-8.75 4.8555 0.88086c4.8152 0.87221 12.634 4.3236 24.189 10.68 3.3 1.8152 10.281 4.1896 15.514 5.2754 5.4732 1.1356 14.509 4.5428 21.273 8.0234 6.4671 3.3277 12.801 6.0508 14.074 6.0508 1.2735 0 2.641 0.5286 3.041 1.1758s5.2361 3.3189 10.746 5.9356c5.51 2.6167 10.018 5.4467 10.018 6.2891s2.3264 7.3213 5.1699 14.398c2.8435 7.0771 6.5216 18.568 8.1719 25.535 1.6503 6.9667 4.6841 19.265 6.7422 27.332 2.0581 8.0667 4.1461 17.368 4.6406 20.668l0.9004 6-3.8848-3.668c-2.1366-2.0167-4.5548-3.666-5.373-3.666-0.81828 0-1.9086-1.9506-2.4219-4.334-1.2896-5.9884-4.1132-11.189-6.5918-12.141-3.2999-1.2663-7.3535 3.8257-7.3535 9.2383v4.7637l-3.5117-2.7637c-6.3732-5.0131-15.154-2.8434-15.154 3.7441 0 3.7416 3.4853 8.1582 6.4375 8.1582 1.5851 0 2.0445 1.5461 1.6504 5.5547-0.12008 1.2216 0.71341 4.4499 1.8516 7.1738l2.0703 4.9531 4.7226-0.76758 4.7246-0.76563 1.4746 3.2344c2.6921 5.9085 9.4943 5.7492 11.002-0.25781 0.46248-1.8426 0.50134-4.4216 0.08594-5.7305-0.58276-1.8361 0.17382-2.5656 3.3125-3.1934 2.5102-0.50204 4.533-1.9721 5.2832-3.8398l1.2148-3.0273 0.08594 3.3379c0.04649 1.8357 1.2862 7.535 2.7559 12.666 1.4696 5.131 2.9919 13.196 3.3828 17.92 0.39088 4.7243 1.3781 9.3927 2.1934 10.375 1.0898 1.3131 1.0663 3.1731-0.08789 7.0254-0.8634 2.882-1.2004 6.7154-0.74805 8.5176 1.1267 4.4891-2.4737 6.5409-17.578 10.021-13.59 3.1316-13.115 3.0996-18.168 1.2539-2.14-0.7816-3.666-2.3362-3.666-3.7324 0-2.8433-1.9783-4.6343-8.7734-7.9395l-5.0508-2.4551 4.2441-2.1973c6.1778-3.1946 5.5349-6.8988-2.8184-16.232-8.5761-9.5826-22.268-28.305-22.268-30.449 0-1.8438-8.9039-10.493-17.334-16.838-3.3-2.4837-10.865-8.7362-16.812-13.895-12.374-10.733-45.814-32.073-65.541-41.826-14.655-7.2453-52.212-20.379-65.107-22.768-11.407-2.1128-48.681-2.9628-61.309-1.3984-5.8102 0.71978-18.634 1.9009-28.498 2.625-10.166 0.74633-23.815 2.7614-31.514 4.6523-7.4694 1.8347-15.899 3.3545-18.732 3.377-2.8336 0.02254-8.4176 1.3725-12.408 3l-7.2558 2.959-1.1504 4.4668-1.1504 4.4668-4.9277-0.63281c-10.875-1.3967-26.34-5.1494-29.35-7.1211l-3.1894-2.0898 0.49609-9.8359c0.27316-5.4092 1.1174-10.455 1.877-11.215 0.75956-0.75956 4.6669-2.2375 8.6816-3.2832l7.2988-1.9004 19.002-18.559c12.215-11.929 22.182-20.415 27.912-23.76 4.902-2.862 10.52-6.552 12.482-8.1992 5.5659-4.6713 26.4-12.1 40.1-14.297 11.571-1.8559 32.419-2.9124 48.482-2.707zm792.25 4.5938c13.617-0.02889 27.363 0.41816 31.533 1.3594 3.578 0.80762 11.425 3.8157 17.438 6.6856 8.6066 4.1078 12.787 7.1837 19.644 14.453 4.7909 5.0787 10.973 12.76 13.74 17.07s6.0582 9.3366 7.3125 11.17c12.718 18.589 13.629 32.813 4.1993 65.479-3.2013 11.09-4.348 13.209-12.918 23.855-16.319 20.273-30.539 29.851-56.588 38.117-3.3 1.0472-8.0993 2.6049-10.666 3.4609-8.2602 2.7551-31.506 2.4805-41.334-0.48828l-8.666-2.6191 0.4531-6.4336c0.5823-8.2723-1.2247-11.511-7.0293-12.6-3.5217-0.66065-6.2178-0.07647-11.121 2.4082-3.5595 1.8037-7.2564 4.2256-8.2168 5.3828-3.6149 4.3556-9.7517 2.6-18.463-5.2832-22.96-20.777-35.888-65.583-27.084-93.869 3.0667-9.853 11.703-24.799 20.018-34.643 11.543-13.665 29.063-24.749 46.109-29.172 2.9333-0.76116 7.8336-2.0414 10.889-2.8438 3.6469-0.95781 17.133-1.4614 30.75-1.4902zm-401.64 4.5547c-3.6669 1.4071-2.5067 3.5626 5.334 9.9199 5.5216 4.477 9.0184 5.0374 9.6895 1.5527 0.50894-2.6427-12.382-12.486-15.023-11.473zm805.85 1.1074c4.4968 1.0954 6.8466 4.3823 5.9942 9.6035-1.4995 9.1856-3.4086 16.49-6.0469 23.141-1.5273 3.85-3.1583 6.9905-3.6231 6.9785-0.4649-0.01165-5.3437-4.39-10.844-9.7305-5.5-5.3404-12.101-11.349-14.668-13.352l-4.666-3.6406 3.334-2.8281c1.8334-1.555 7.0695-4.5365 11.637-6.627 7.7412-3.5432 14.386-4.6403 18.883-3.5449zm-109.41 0.6543c14.251-0.75339 29.132 1.6522 46.887 7.0977 16.403 5.0307 30.304 13.678 44.322 27.57 13.642 13.519 18.91 23.064 22.676 41.088 3.418 16.361 0.7394 41.701-5.7304 54.229-7.0508 13.652-23.544 28.458-41.568 37.311-14.225 6.9868-22.496 9.6887-38.379 12.539-6.2271 1.1175-18.52 2.283-27.32 2.5898l-16 0.55664-12.188-3.1523c-11.246-2.9088-17.731-5.4718-27.609-10.916-4.1228-2.2721-4.1526-3.3184-0.3711-13.156 3.2582-8.4766 2.7949-14.645-1.3457-17.902-5.6969-4.4813-16.938-2.9105-24.459 3.418l-4.0566 3.4121-2.6719-3.1308c-4.5034-5.2741-12.999-23.906-15.766-34.58l-2.6211-10.115 1.1699-10.551c2.8015-25.249 6.8221-34.15 21.66-47.963 6.0087-5.5934 12.558-11.02 14.555-12.061s5.8958-3.439 8.666-5.3301c2.7703-1.8911 10.437-5.9843 17.037-9.0977 15.242-7.1899 28.862-11.102 43.113-11.855zm-1005.8 3.5723c2.8439-1.0913 14.004 0.73776 14.004 2.2949 0 0.7044-3.6934 3.6666-8.207 6.584-4.5137 2.9173-8.7124 5.3047-9.332 5.3047-3.1452 0 0.0571-12.849 3.5352-14.184zm34.18 3.6133c1.5374 0.21033 3.3546 0.92351 5.0059 2.0801 3.694 2.5874 8.0819 11.676 8.123 16.824 0.03716 4.6534-3.6827 4.9338-8.6602 0.65235-3.3974-2.9223-9.0908-16.518-7.7949-18.615 0.53034-0.85811 1.7888-1.1517 3.3262-0.9414zm322.04 1.6894c-0.76756-0.06192-1.6674 0.02913-2.6875 0.28516-3.3714 0.84619-4.7419 4.2698-2.5762 6.4355 1.8481 1.8481 7.6882 0.19235 8.1641-2.3144 0.50368-2.6536-0.59772-4.2205-2.9004-4.4062zm34.461 2.668c-2.3686-0.63519-4.0663 0.74252-4.4297 3.8906l-0.42188 3.6562h4.1289c5.0918 0 6.9629-3.5461 3.2891-6.2324-0.91397-0.66831-1.7768-1.1027-2.5664-1.3144zm65.092 6.4356c-2.2171-0.00628-5.5604 0.30769-10.701 0.93945-13.785 1.694-15.945 2.6211-14.555 6.2441 0.64836 1.6896 1.8485 2.0561 4.8047 1.4648 2.1673-0.43346 7.8564-1.1893 12.643-1.6797 9.8136-1.0054 14.376-3.3304 11.756-5.9883-0.63901-0.64813-1.7301-0.97418-3.9473-0.98046zm-151.13 1.1113c-4.3846 0-2.7325 4.2814 2.7012 6.998 6.8274 3.4136 12.119 2.7452 9.5742-1.209-1.3891-2.1582-9.0877-5.7891-12.275-5.7891zm42.703 13.334c-1.3976-0.12949-2.9304 0.45107-3.4648 1.8438-0.97714 2.5464 2.8822 11.351 5.3984 12.316l2.0606 0.79102v12.324c0 17.715 3.2683 25.331 12.666 29.508 5.1652 2.2957 5.5746 2.2855 9.8867-0.26172 7.6262-4.5049 16.113-21.315 16.113-31.912 0-3.101 0.70576-4.4836 2.5312-4.9609 3.8518-1.0073 7.248-7.0314 6.2363-11.062-1.0208-4.0673-5.1511-3.9994-5.8633 0.0957-0.63238 3.6361-4.0004 5.9844-8.5801 5.9844-5.8638 0-8.9249-2.294-11.697-8.7617-3.1197-7.2779-5.256-7.5809-8.7656-1.248-0.80977 1.4611-3.4374 3.2192-5.8398 3.9082l-4.3691 1.2539-1.8262-2.498c-1.0044-1.3736-1.8262-3.5837-1.8262-4.9102 0-1.4422-1.2626-2.2807-2.6602-2.4102zm-32.537 3.1992c-1.0258-0.39362-4.9271 0.83482-8.668 2.7305-6.2873 3.186-8.1284 5.6314-5.9121 7.8476 1.3978 1.3978 2.4228 1.1171 9.6543-2.6348 6.6838-3.4677 8.5884-6.5379 4.9258-7.9434zm-583.51 1.4668 0.01953 4.0508c0.01072 2.2279-1.3305 6.6982-2.9805 9.9336-1.65 3.2354-3.7494 6.1115-4.666 6.3926-2.4685 0.75695-2.0534-0.76672 3.0195-11.045l4.6074-9.332zm707.66 1.8477c-1.8817 1.8817-0.17614 5.3235 3.3496 6.7637 1.6688 0.68165 6.6332 2.7577 11.033 4.6133 8.802 3.712 10.666 3.7386 10.666 0.15235 0-3.0177-22.982-13.596-25.049-11.529zm277.9 3.9688-4.414 0.42578c-4.5179 0.4346-6.1652 3.061-4.5547 7.2578 0.4926 1.2836 2.1005 1.8576 4.4453 1.5879l3.6738-0.42188 0.4258-4.4238 0.4238-4.4258zm-349.5 1.3398 4.4844 4.7539c4.7749 5.0629 4.7312 5.353-0.49609 3.2383-1.8333-0.74166-5.584-0.99654-8.334-0.5664l-5 0.78125v-2.4141c0-1.5498 1.6746-3.019 4.6738-4.1035l4.6719-1.6895zm376.46 0.17579c-3.8694 0-5.2187 2.7747-3.1915 6.5625 1.718 3.2101 2.7058 3.3999 5.7813 1.1055 3.3012-2.4628 1.5428-7.668-2.5898-7.668zm-1006 0.66796 0.11915 6.375c0.06556 3.5069-0.74994 8.4569-1.8125 11-1.0626 2.5431-2.4628 4.625-3.1113 4.625-2.5409 0-2.7582-1.8484-0.6875-5.8359 1.1893-2.2904 2.9123-6.8641 3.8281-10.164l1.6641-6zm1055.4 0.75391c-2.5691 0.19204-6.6941 1.3239-12.596 3.4102-11.296 3.9932-12.558 4.8475-11.445 7.7461 1.047 2.7284 0.9266 2.7458 14.871-2.291 8.1008-2.926 12.131-5.0778 12.432-6.6406 0.3214-1.6691-0.6927-2.4166-3.2617-2.2246zm-367.17 5.918c-2.2804 1.4094-1.4572 4.3163 2.3438 8.2734 2.0167 2.0995 6.2777 6.6748 9.4688 10.168 5.671 6.208 8.4917 7.2566 9.2344 3.4316 0.35685-1.8378-14.228-19.442-17.91-21.617-0.99796-0.5897-2.4092-0.70548-3.1367-0.25586zm-46.232 0.7168c1.6527 0.0116 3.5762 1.786 3.5762 3.9023 0 1.4897-0.60066 2.709-1.334 2.709-0.73334 0-1.332-0.84977-1.332-1.8887 0-1.0389-0.75131-2.157-1.668-2.4844-0.91667-0.32738-1.241-1.0517-0.72266-1.6094 0.40942-0.44044 0.92956-0.63277 1.4805-0.6289zm-632.42 2.6113c2.2323 0 1.4336 9.6507-1.2969 15.666-1.4338 3.1587-3.4965 5.666-4.6602 5.666h-2.0879l3.3555-6.6211c1.8457-3.6423 3.3555-8.4436 3.3555-10.668 0-2.2244 0.60065-4.043 1.334-4.043zm880.76 3.0215c-2.1156-0.22853-3.4297 1.0815-3.4297 3.6699 0 2.806 2.5557 3.7572 21.332 7.9394 13.703 3.0523 16.668 2.9436 16.668-0.61328 0-1.6275-1.0293-2.8016-2.668-3.0449-6.7811-1.0069-26.964-5.9256-29.539-7.1992-0.8642-0.4275-1.6581-0.67578-2.3633-0.75195zm149.77 3.4316-1.9882 1.6504c-2.9138 2.4182-0.6865 3.9795 10.453 7.3281 11.24 3.3788 15.162 3.8027 16.416 1.7734 1.6174-2.617-2.5408-4.9951-13.814-7.9004l-11.066-2.8516zm163.12 0.47851c-3.3503 0.26342-5.0963 1.1359-5.3789 2.6289l-0.4219 2.2285 7.7441 0.87304c4.2593 0.48042 11.943 1.6564 17.076 2.6133 13.659 2.5462 15.334 2.4907 15.334-0.50586 0-3.1248-4.5366-4.7202-19.356-6.8106-6.695-0.94437-11.648-1.2908-14.998-1.0274zm-810.5 0.08594c-1.8589 0.40556-3.6465 1.3613-5.207 2.9219-5.2893 5.2893-4.2996 14.299 2.375 21.635l2.6465 2.9102-5.5508 1.4941c-7.6967 2.0725-10.744 5.4918-10.744 12.055v5.3652l3.668 1.4258c2.0167 0.78378 6.8429 1.1084 10.727 0.72266l7.0625-0.70117-0.76172 2.4004c-0.88224 2.7797 1.4062 9.5661 3.7226 11.039 4.6692 2.9689 15.582-2.9172 15.582-8.4043 0-1.8727 0.94492-2.5488 3.5625-2.5488 7.994 0 11.542-10.524 5.6582-16.787l-2.7812-2.9609 1.4785-2.7617c1.1236-2.0994 1.0162-3.8629-0.4414-7.3516-2.2955-5.494-6.315-7.9378-11.27-6.8496l-3.6387 0.79883-1.6895-4.6699c-2.6088-7.2145-8.8217-10.949-14.398-9.7324zm-366.77 1.2031c-1.183 0.09603-2.4426 0.9732-2.7461 2.5488-0.7025 3.6478 5.2976 9.5127 13.578 13.271 7.6133 3.4559 11.457 3.8369 11.457 1.1328 0-0.66412-3.4294-2.7243-7.6211-4.5781-9.041-3.9984-12.379-6.7584-12.379-10.234 0-1.551-1.1061-2.2367-2.2891-2.1406zm1237.5 0.59765c-4.9056-1.8824-10.483 5.2828-7.1953 9.2441 2.083 2.5099 7.167 2.4861 9.2675-0.04492 2.0412-2.4594 0.7678-8.1094-2.0722-9.1992zm-869.31 0.78907c4.7826-0.55768 9.7626 4.1762 11.773 12.289 1.7445 7.0384 4.1763 9.2421 5.3301 4.8301 1.114-4.26 4.9898-4.986 7.8379-1.4688 3.3286 4.1107 3.222 9.4588-0.20704 10.355-2.9782 0.77882-3.6492 3.0527-0.90039 3.0527 2.8973 0 7.5664 5.9176 7.5664 9.5898 0 3.8179-3.0949 7.1268-5.3574 5.7285-0.8107-0.50104-2.0215-2.3532-2.6914-4.1152-2.0173-5.306-3.6488-3.6253-3.5391 3.6445l0.10351 6.8476-3.666 3.1524c-3.8092 3.2765-5.8298 3.7957-8.3106 2.1328-2.4194-1.6218-3.27-7.7298-1.7031-12.225 1.7972-5.1554 0.70332-6.6258-2.6621-3.5801-2.971 2.6887-10.651 4.1618-15.436 2.9609-2.634-0.66108-3.4043-1.6974-3.4043-4.5742 0-6.1272 2.5918-8.1845 12.346-9.8008 4.9433-0.81913 8.9863-1.9525 8.9863-2.5176s-2.1148-2.3344-4.6992-3.9316c-8.2265-5.0843-11.132-14.813-5.9668-19.979 1.4329-1.4329 3.0054-2.2067 4.5996-2.3926zm910.91 2.3926c-5.6484 0-7.9085 4.744-4.0821 8.5703 2.8582 2.8581 5.5254 2.6305 7.2657-0.6211 2.0567-3.8429 0.412-7.9492-3.1836-7.9492zm-1257.5 1.6738c-0.4855 0.18396-0.70508 0.61051-0.70508 1.2988 0 1.0735 1.35 2.6027 3 3.3984 4.5818 2.2097 21 2.0696 21-0.17969 0-1.2584-2.7376-2.0718-9-2.6738-4.95-0.47589-10.35-1.2334-12-1.6816-1.058-0.28743-1.8094-0.34606-2.2949-0.16211zm914.63 0.32617c-2.1211 0-2.7518 1.0259-3.082 5.0195l-0.4141 5.0215 8.209 8.209 1.3516 9.541c1.3853 9.7786 5.1252 18.915 8.955 21.875 3.2265 2.4933 11.08 2.0024 16.004-1 5.2729-3.215 16.978-20.701 18.193-27.18 0.5699-3.0377 1.8186-4.9688 3.5723-5.5254 3.25-1.0315 7.2547-8.8579 6.0879-11.898-0.6656-1.7346-1.3847-1.8849-3.5235-0.74023-1.4776 0.79076-2.6855 1.9738-2.6855 2.6289 0 2.5795-4.4092 5.3809-8.4668 5.3809-4.7398 0-10.201-3.1751-10.201-5.9316 0-3.445-4.0226-3.3952-7.0332 0.08789-8.6697 10.03-22.869 9.332-23.883-1.1738-0.3174-3.2882-1.0524-4.3145-3.084-4.3145zm392.53 2.998c-5.2506 0.44584-11.785 1.3316-17.529 2.4805-3.5111 0.70225-4.9774 4.0989-2.7363 6.3398 0.5116 0.51171 1.8616 0.53604 3 0.05469 3.9948-1.6893 12.806-3.0909 19.779-3.1484 7.1487-0.05895 10.369-2.5135 7.3125-5.5703-0.6094-0.60935-4.5756-0.60209-9.8262-0.15625zm-732.99 3.9902c0.41467-0.38988 1.7094-0.06533 3.8262 1.0293 3.1184 1.6126 5.1113 1.7897 8.7637 0.78125l4.7266-1.3047-1.7617 2.252c-0.96951 1.2388-2.6637 2.9836-3.7637 3.877s-2.2994 1.6259-2.666 1.627c-1.4452 0.00403-6.0909-3.0271-7.668-5.0039-1.4063-1.7627-1.8717-2.8679-1.457-3.2578zm582.26 2.3144c-2.489 0.30627-3.1328 1.1561-3.1328 2.6973v2.666l8 0.66992c4.4 0.36842 10.399 0.66702 13.332 0.66602l5.334-0.00196v-2.668-2.666l-9.3301-0.80078c-7.3811-0.63291-11.714-0.86877-14.203-0.5625zm-283.47 0.29492c-0.55-0.308-7.5926 0.40649-15.65 1.5879l-14.65 2.1465-0.4472 2.334c-0.3344 1.7445 0.4391 2.334 3.0625 2.334 3.5023 0 20.004-2.1899 25.686-3.4082 2.8537-0.61192 4.1309-3.8008 2-4.9941zm126 0.41406c-4.4598-0.02474-2.3215 4.6806 4.666 10.266 6.9788 5.5782 11.686 7.2167 11.646 4.0547-0.032-2.6106-1.5596-4.4344-7.9941-9.5488-3.292-2.6166-7.0351-4.7645-8.3184-4.7715zm-54.26 2.9805 4.9121 2.5039c2.7013 1.3772 5.6499 2.5039 6.5528 2.5039 0.9682 0 1.4116 1.1906 1.082 2.9024-0.8653 4.4932-2.4177 5.1324-4.8047 1.9805l-2.1836-2.8828-8.3125 0.30469c-4.5717 0.16776-9.1114 0.96921-10.09 1.7812-1.8608 1.5443-4.5625 0.65743-4.5625-1.498 0-0.69005 1.097-1.2559 2.4394-1.2559s5.2605-1.426 8.7051-3.1699l6.2617-3.1699zm-63.289 4.6836c-2.2146-0.43162-6.5881 1.4377-12.52 5.4297-4.1794 2.8129-10.748 6.8647-14.598 9.0039-4.2927 2.3856-6.9992 4.7915-7 6.2227-0.0024 4.0526 4.8353 2.641 18.041-5.2656 14.12-8.4541 18.368-11.888 17.549-14.186-0.2361-0.66229-0.7344-1.0612-1.4726-1.2051zm325.69 0.92968c-0.6965 0.0956-1.3904 0.38182-2.0058 0.89258-3.4834 2.8909 1.5121 11.329 9.0195 15.236 2.5292 1.3162 3.7136 3.2326 4.3125 6.9785 0.9954 6.2244 5.7586 13.655 10.16 15.85 3.7242 1.8568 9.6694 1.0486 15.373-2.0898 4.5384-2.4972 10-12.195 10-17.756 0-2.7819 0.6472-3.7168 2.5703-3.7168 3.3114 0 8.3308-6.3668 7.8223-9.9219-0.5492-3.8394-5.5916-3.6938-6.1426 0.17773-0.5586 3.9263-7.2237 6.0614-14.022 4.4902-2.8081-0.64902-5.2365-1.3834-5.3965-1.6309-0.1602-0.24745-1.0011-2.0986-1.8672-4.1152-2.1155-4.9259-3.6126-4.621-6.5214 1.332l-2.4434 5-4.7383 0.39843c-5.4298 0.45635-11.928-3.7309-11.928-7.6855 0-2.291-2.1037-3.7262-4.1934-3.4395zm83.525 1.0957c-5.4874 0.61439-2.4957 4.3814 7.334 9.2383 10.309 5.0938 15.334 5.8779 15.334 2.3926 0-2.4069-18.818-12.062-22.668-11.631zm-120.86 10.957c-1.9428 0.11858-4.9084 1.207-8.998 3.2715-5.8509 2.9535-8.1387 4.8526-8.1387 6.7559 0 1.4561 0.8829 2.6465 1.961 2.6465 3.5556 0 18.039-8.1308 18.039-10.127 0-1.8148-0.9204-2.6655-2.8633-2.5469zm117.76 0.7539c-0.6173 0.02389-1.1718 0.32609-1.7539 0.90821-1.2357 1.2358-0.2968 3.4726 4.1816 9.9688 3.1763 4.6071 6.6832 9.441 7.793 10.742 2.2528 2.641 4.6869 2.41 5.252-0.5 0.4424-2.2788-10.048-18.296-13.336-20.361-0.8389-0.52713-1.5194-0.7817-2.1367-0.75782zm-53.906 1.7695c1.3942-0.15416 3.2509 0.22585 5.0937 1.1914l3.6387 1.9062-3.1953 0.57813c-4.1339 0.74729-7.8633-0.04159-7.8633-1.6641 0-1.1693 0.9319-1.8576 2.3262-2.0117zm-297.99 10.564c1.2833-0.33536 3.3847-0.33536 4.668 0 1.2834 0.33537 0.2327 0.61133-2.334 0.61133s-3.6174-0.27596-2.334-0.61133zm-412.69 2.2539c4.5069 0 20.948 5.6107 23.516 8.0254 0.63666 0.59869-1.1406 3.8373-3.9492 7.1973-2.8086 3.36-5.4295 6.0546-5.8242 5.9863-2.3417-0.40473-17.413-13.061-18.627-15.643-1.9844-4.2193-0.80098-5.5664 4.8848-5.5664zm712.72 4.4082c1.2973-0.33796 3.0973-0.31445 4 0.05078 0.9028 0.36524-0.1574 0.64048-2.3574 0.61328-2.2-0.02717-2.9398-0.32601-1.6426-0.66406zm-681.58 8.3203 5.6113 2.8555c14.901 7.5823 32.924 11.221 57.225 11.553l14.279 0.19532 2.123 6c1.167 3.3 2.962 7.8 3.9902 10 1.0282 2.2 2.0477 5.5006 2.2656 7.334 0.57645 4.85 5.5811 4.6146 6.1465-0.28906l0.41797-3.6211 4.916-0.78515c2.7037-0.43127 5.9475-1.3454 7.209-2.0312 1.758-0.95576 2.6652-0.55464 3.8809 1.7168 1.7731 3.313 3.5686 25.766 2.4453 30.576l-0.72461 3.0996-10.613 3.5059c-9.4769 3.1288-21.071 5.493-22.197 4.5273-0.22957-0.19682-6.1173-0.70528-13.084-1.1309-20.656-1.2619-30.751-4.0499-51.443-14.207-10.327-5.0692-19.52-10.113-20.43-11.209l-1.6543-1.9922 2.8281-13.646 2.8281-13.645-3.5781-2.8535-3.5781-2.8516 1.3984-2.582c0.76922-1.4201 3.2751-4.368 5.5684-6.5508l4.1699-3.9688zm89.961 1.0039c4.7744 0.87313 10.671 6.4622 13.328 14.463l2.2383 6.7383-1.8984 1.8984c-1.0444 1.0444-4.9141 2.2569-8.5996 2.6934l-6.7012 0.79296-3.0254-9.4062c-2.2894-7.1199-2.7236-10.32-1.7832-13.16 1.1155-3.3688 3.5768-4.5434 6.4414-4.0195zm-266.04 3.6172c2.3618-0.52008 5.3027 4.9316 5.3027 11.922v5.1445l2.709-0.70898c5.9864-1.5655 11.196 9.0844 5.3516 10.939-1.4485 0.45974-4.0129-0.09451-5.7734-1.248-3.7225-2.4391-5.7899-1.2132-3.0801 1.8262 1.7863 2.0035 2.5983 5.9714 2.2734 11.107-0.08117 1.2833-1.0635 2.334-2.1816 2.334-2.1262 0-4.6328-5.0554-4.6328-9.3418 0-3.9582-2.1783-4.2674-4.5508-0.64648-2.7826 4.2468-5.2773 4.2211-7.2344-0.07422-2.0937-4.5951-1.9462-7.9475 0.4375-9.9258 2.6908-2.2331 1.3024-4.0117-3.1309-4.0117-6.4083 0-9.7437-6.9026-4.1875-8.666 4.3465-1.3795 7.8877 0.54219 11.479 6.2305 1.8588 2.9445 3.7501 4.9843 4.2031 4.5312 0.45316-0.45305 0.66566-3.7994 0.47266-7.4355-0.193-3.6362 0.03417-7.8227 0.50391-9.3027 0.52832-1.6646 1.2518-2.5005 2.0391-2.6738zm347.42 2.8379c1.2622-0.24417 2.6342 1.281 4.0176 4.5918 2.4348 5.8274 1.6396 13.139-2.9844 27.461l-3.3066 10.24-9.8379 8.8047c-7.5288 6.7383-11.812 9.4578-18.254 11.59-4.6295 1.5322-11.867 3.2024-16.084 3.7109l-7.666 0.92383v-3.0273-3.0293l5-0.9043c2.75-0.4979 6.7118-1.7737 8.8047-2.834 6.5623-3.3244 17.893-11.636 20.557-15.08 3.5555-4.5966 14.503-28.926 16.393-36.43 0.94718-3.7616 2.0992-5.7734 3.3613-6.0176zm431.75 6.5664c1.4528 0.28443 2.5941 0.96279 3.2227 2.0859 1.3385 2.3916-0.4272 9.3363-4.8379 19.033-1.4693 3.2303-2.3975 6.5863-2.0625 7.459 0.3349 0.87271-1.3688 3.0514-3.7871 4.8398-2.4181 1.7885-6.0249 3.9569-8.0137 4.8203l-3.6152 1.5703-0.6954-4.2812c-2.0684-12.754-0.6093-24.066 3.7071-28.742 4.5584-4.9382 11.724-7.6384 16.082-6.7852zm69.598 12.816c-0.8903-0.00189-1.6908 0.16639-2.2383 0.50781-2.9902 1.865 0.2979 5.7943 5.584 6.6738v0.00195c5.2222 0.86891 13.319 0.05737 15.039-1.5059 0.6473-0.58853 0.7852-2.089 0.3067-3.3359l-0.8711-2.2676-5.959 0.8164c-3.2775 0.44924-7.3648 0.28255-9.084-0.37109-0.906-0.34457-1.8871-0.51765-2.7773-0.51953zm-227.02 1.4707c2.9459-0.39137 5.4063 0.02541 5.9063 1.4453 0.3646 1.0356-3.0624 5.3451-7.9512 10-4.7252 4.499-10.947 9.4564-13.828 11.018l-5.2383 2.8398-2.8711-5.6973-2.873-5.6953 6.873-3.6641c3.7799-2.0155 8.8026-5.095 11.162-6.8438 2.4435-1.811 5.8745-3.011 8.8203-3.4023zm-120.25 3.5078c1.2186-0.19258 2.1707-0.04802 2.7187 0.5 2.0908 2.0909 1.6946 7.7034-1.1503 16.283l-2.4317 7.334-3.332 0.3457c-4.3277 0.44761-9.0579-2.0888-12.471-6.6855l-2.7266-3.6719 5.0625-5.1836c4.6333-4.7449 10.674-8.3441 14.33-8.9219zm483.64 3.7637c-0.5029 0.04958-0.9988 0.31911-1.4883 0.8086-1.0075 1.0074-0.5356 4.2334 1.6191 11.061 2.4013 7.6088 2.8748 11.411 2.2539 18.061l-0.7851 8.4238h2.5117c6.0095 0 6.3171-19.046 0.5312-32.908-1.5724-3.7678-3.1339-5.594-4.6425-5.4453zm-277.55 1.3965c-2.5367 0.59253-5.0691 3.2868-6.3203 7.0781-1.9499 5.9082-1.1594 20.828 1.2578 23.74 2.479 2.9871 6.7832 2.7548 6.7832-0.36524 0-1.3768-0.9197-3.265-2.043-4.1973-3.581-2.972-0.7358-21.299 3.3067-21.299 2.0979 0 1.6897-3.9725-0.4942-4.8106-0.7993-0.30671-1.6447-0.34399-2.4902-0.14648zm11.582 0.93164c-0.707 0.07381-1.5759 0.56947-2.6289 1.4434-1.6177 1.3425-1.9281 3.6222-1.4277 10.482 0.3518 4.8218 1.0522 9.8163 1.5586 11.1 1.0229 2.5922 2.7179 3.0268 3.9609 1.0156 0.448-0.72496 0.9403-6.1976 1.0957-12.162 0.2223-8.5273-0.4374-12.1-2.5586-11.879zm200.91 3.2617c1.5893-0.03849 3.8032 1.2493 8.2617 4.543 7.5321 5.5644 11.995 10.556 10.949 12.248-0.3147 0.50913-3.6598 1.2914-7.4336 1.7383l-6.8613 0.8125-2.1777-2.6152c-3.056-3.669-5.4687-1.5861-5.8555 5.0547l-0.3223 5.5137-2.9746 0.75391c-5.4286 1.3753-8.865 12.118-5.7422 17.953 0.7053 1.3179 3.106 3.1513 5.334 4.0742s4.0508 2.6616 4.0508 3.8652c0 2.6282-5.1982 6.7702-11.83 9.4258-3.808 1.5248-13.346 1.9814-44.836 2.1445-45.951 0.23802-54.878-0.50842-69.447-5.8008l-10.553-3.832-0.0918-9.959c-0.0496-5.4766-0.5345-10.677-1.0782-11.557-0.5439-0.87982-3.3122-1.5996-6.1523-1.5996-4.1231 0-5.68-0.73838-7.7266-3.666-1.4096-2.0167-2.903-5.1667-3.3183-7l-0.7559-3.334 6.6035-3.1211c3.632-1.7171 8.3884-4.6249 10.57-6.4609l3.9687-3.3379 3.6563 1.375c2.0111 0.75669 7.4183 2.9428 12.016 4.8574 23.886 9.9476 49.338 10.626 86.307 2.3027 5.2172-1.1746 29.522-11.128 33.998-13.924 0.4513-0.28185 0.9116-0.44225 1.4414-0.45508zm51.945 0.93945c-0.5205-0.04515-1.0245 0.26467-1.6758 0.91602-1.3026 1.3027-1.1862 2.951 0.5586 7.9434 1.2109 3.4645 2.6219 9.2982 3.1367 12.965 0.5146 3.6667 1.1953 7.116 1.5117 7.666 1.0286 1.7873 4.1112 1.0571 4.9688-1.1777 1.5405-4.0143-3.2641-23.37-6.7266-27.098-0.715-0.76989-1.2529-1.1697-1.7734-1.2148zm-384.38 2.5898 1.9121 2.2832c1.0515 1.256 2.903 3.8787 4.1133 5.8281l2.1992 3.5449-2.0859 1.7324-2.086 1.7305 0.4688 12.443 0.4687 12.443-7.332 3.2148c-8.0583 3.5331-41.542 15.456-50 17.805-2.9333 0.81446-9.6481 2.0955-14.922 2.8457-12.472 1.7741-19.068 1.5617-30.154-0.96875-6.2281-1.4216-10.355-3.2681-13.158-5.8867l-4.0859-3.8164 0.6758-20.314c0.3723-11.186 1.4045-22.114 2.2968-24.316l1.6211-4 1.0703 2.7754c1.7381 4.5083 8.6693 9.4462 14.588 10.393l5.5117 0.88086-0.8418 4.4883c-0.9329 4.973 1.0238 7.3192 4.0254 4.8281 1.7013-1.412 4.8458-10.392 6.6289-18.932l0.7442-3.5664 7.6152 2.6777c10.041 3.5291 34.886 3.9472 45.717 0.76953 11.235-3.2963 14.915-4.5361 20.172-6.7988l4.8379-2.084zm-422.91 11.576c0.89098-0.89099 13.159 4.5289 21.949 9.6973 7.5924 4.464 19.831 9.0782 28.572 10.773 15.021 2.9131 18.1 3.1836 35.377 3.1035l18-0.08204 8.9238-3.4375 8.9219-3.4355 0.88476 7.0762c1.126 9.0123-1.3007 27.351-5.3516 40.449-1.7317 5.5994-3.5588 12.281-4.0605 14.848-0.50179 2.5667-1.7676 6.016-2.8125 7.666-1.0449 1.65-3.0367 3-4.4258 3-2.634 0-3.1643-1.1811-9.4414-21.014-1.6851-5.3241-3.7506-10.251-4.5898-10.947-2.9679-2.4632-44.321-16.338-64.049-21.49-24.884-6.4992-34.343-8.5731-48.412-10.609-8.7596-1.2678-10.924-2.0099-10.334-3.5469 0.41029-1.0692 0.7461-2.1842 0.7461-2.4785 0-1.4699 13.451-7.0082 18.984-7.8164 7.1134-1.039 10.35-3.5314 10.35-7.9707 0-1.6587 0.3449-3.3625 0.76758-3.7852zm215.86 2.9922c2.4053 0 8.0081 6.614 12.637 14.918 7.9609 14.282 22.502 23.802 39.746 26.021l9.6816 1.2461 9.5957-2.4356c5.2778-1.3403 10.192-3.032 10.92-3.7598 2.2957-2.2958 3.0174-1.4706 3.2168 3.6758 0.228 5.8818-0.7687 9.666-2.5449 9.666-0.6985 0-3.6233 1.4867-6.5 3.3027-8.6135 5.4374-32.897 6.5832-45.607 2.1523-12.192-4.2503-29.337-21.775-33.967-34.723-2.9923-8.3675-1.3469-20.064 2.8223-20.064zm560.84 6.2832-2.6641 7.0098c-1.4648 3.8554-2.8463 7.1396-3.0684 7.2969-0.222 0.15727-2.5594 1.8884-5.1953 3.8476-5.6053 4.1665-11.637 4.5936-15.916 1.1289l-3.0039-2.4316 1.291-3.9004c1.9897-6.011 10.978-11.356 20.555-12.225l8.002-0.72656zm-936.37 3.0488c-2.7878 0-17.096 9.5658-17.096 11.43 0 3.0498 2.7724 2.2348 11.738-3.4531 7.4197-4.7071 9.6154-7.9766 5.3574-7.9766zm15.402 5.375c-0.73718-0.68254-2.641 0.07793-5.5977 2.3867-2.6954 2.1048-7.751 5.4756-11.234 7.4922-4.056 2.3481-6.332 4.5804-6.332 6.207 0 3.4841 3.2079 3.1538 12-1.2344 5.381-2.6857 7.979-4.971 9.7617-8.582 1.7098-3.4632 2.1395-5.587 1.4024-6.2695zm573.76 16.975c2.7025-0.80272 2.9244 1.4951 4.0527 10.982l1.0293 8.666 8.6661 1.0684c9.5381 1.1758 14.664 3.741 14.664 7.3398 0 3.0471-6.6485 4.9021-27.332 7.6211-8.8 1.1568-17.8 2.66-20 3.3418-2.2 0.68183-9.1007 2.4181-15.334 3.8574-6.2333 1.4394-14.633 3.593-18.666 4.7871-4.0333 1.1941-9.134 2.6876-11.334 3.3184-6.3494 1.8203-34.157 11.715-34.838 12.396-0.3394 0.33935-1.6407 4.3896-2.8906 9.002-1.2498 4.6124-2.8915 8.5909-3.6485 8.8418-1.833 0.60757-9.4814-12.167-12.631-21.098-1.3849-3.9271-3.0521-11.341-3.707-16.475-1.198-9.3894-0.9899-24.405 0.3574-25.752 0.3984-0.39839 2.8211 0.27556 5.3847 1.498 2.5636 1.2225 9.8 3.2309 16.08 4.4648l11.418 2.2441 12.238-1.6133c13.544-1.7853 14.294-1.9736 34.236-8.5801 22.226-7.3631 32.741-11.238 38.6-14.227 1.578-0.80501 2.7535-1.418 3.6543-1.6856zm101.58 5.6504c0.6409 0 3.7909 1.4322 7 3.1816 3.209 1.7494 10.874 4.8294 17.035 6.8438l11.201 3.6621 9.2421-0.7754c10.955-0.91843 19.872-3.9919 26.549-9.1543 5.6959-4.4036 6.4746-4.5681 6.4746-1.3672 0 3.4118-10.359 13.034-16.75 15.559-7.2753 2.8745-31.489 5.6309-40.584 4.6192-10.654-1.1852-15.668-4.2402-18.746-11.42-2.7441-6.4017-3.3497-11.148-1.4219-11.148zm-715.89 8c3.6076 0 13.391 9.5902 13.391 13.127 0 3.7428-2.1609 3.6761-4.1172-0.12695-2.2422-4.359-8.1003-10.332-10.133-10.332-0.96279 0-1.75-0.60065-1.75-1.334s1.1736-1.334 2.6094-1.334zm800.77 0.19726c0.2463-0.25906 5.4347 1.1908 11.531 3.2227l11.084 3.6934 20 0.98047c11 0.53845 32.6 0.77209 48 0.51953l28-0.45899 7.6347-2.5547c4.1988-1.4043 7.9495-2.238 8.334-1.8535 1.3435 1.3435 0.6847 9.7092-1.1015 13.984-0.9907 2.371-5.1934 8.1989-9.3379 12.951-9.632 11.044-11.529 15.188-11.529 25.188 0 8.7405-0.5758 9.2816-6.5742 6.1797-8.3363-4.3108-14.423-14.441-15.633-26.016l-0.8378-8.0332h-3.0332c-1.6677 0-3.2332 0.60212-3.4786 1.3379-0.2606 0.78227-7.7791 1.4756-18.107 1.668l-17.664 0.32812v2.0215c-0.0013 1.1114-1.0527 3.893-2.336 6.1816h-0.0019c-1.2833 2.2886-7.5468 9.0582-13.918 15.045l-11.584 10.885-1.3301-2.4883c-0.7539-1.4086-1.0102-6.7875-0.5898-12.398l0.7422-9.9121-5.5293-7.334c-7.2576-9.6255-10.66-16.84-12.051-25.549-0.6256-3.9151-0.9356-7.3288-0.6895-7.5879zm-805.84 5.9238c2.4238 0.29356 5.8586 3.0474 8.6074 7.2012 1.9983 3.0197 3.0661 5.8745 2.3945 6.3984-1.6086 1.2549-14.504-11.648-13.025-13.033 0.52072-0.48776 1.2155-0.66426 2.0234-0.56641zm-8.3359 5.8789c1.552 0 9.459 11.894 9.459 14.229 0 3.6716-2.6083 1.5309-6.5684-5.3906-4.393-7.6782-4.7726-8.8379-2.8906-8.8379z" stroke-width="1.3333"/>
</svg>
