<svg xmlns="http://www.w3.org/2000/svg" viewBox="0 0 135.46666 135.46667" width="512" height="512">
  <g transform="translate(-35.775388,-79.026748)">
    <path fill="#fbe1ac" d="m 98.011098,197.45291 c -27.258995,-1.0365 -46.093451,-12.95242 -50.252583,-31.79309 -0.188343,-0.85318 -0.521885,-0.88922 -3.060956,-0.33072 -4.230951,0.93064 -6.422158,0.17802 -6.422158,-2.20584 0,-1.98277 0.980332,-2.61148 5.231533,-3.35511 3.441135,-0.60193 3.220943,-0.28816 3.196162,-4.55443 l -0.02116,-3.64296 -2.38125,-0.21814 c -3.933536,-0.36035 -5.423958,-1.2092 -5.423958,-3.08915 0,-2.31377 2.688571,-3.20073 7.555787,-2.49263 1.335589,0.1943 1.388468,0.12879 2.472811,-3.06362 1.216424,-3.58127 3.624614,-8.45108 5.626128,-11.37708 2.417039,-3.53346 2.297589,-3.17439 3.017362,-9.0701 3.79377,-31.075023 9.7934,-33.863823 26.431936,-12.28632 3.907724,5.06768 3.71344,4.9495 7.130195,4.33723 5.318503,-0.95305 6.790806,-1.077 12.588693,-1.05981 4.78626,0.0142 6.67918,0.13238 9.65729,0.60296 2.03729,0.32191 4.25784,0.64925 4.93455,0.72742 l 1.23037,0.14212 1.81233,-2.33634 c 10.16693,-13.106563 12.76132,-15.628213 16.3885,-15.929007 6.70057,-0.555663 9.84601,6.601907 12.01092,27.331217 0.37419,3.58293 0.56254,4.20646 1.80999,5.99172 2.64791,3.78951 5.26423,8.90108 6.6838,13.05828 l 0.99383,2.91042 3.5349,-0.0974 c 7.5077,-0.20686 7.89746,4.88791 0.43018,5.62306 -2.09379,0.20613 -2.99014,0.39492 -2.97166,0.62589 0.0145,0.1819 0.0443,1.92401 0.0661,3.87136 l 0.0397,3.54063 2.57969,0.45039 c 5.02265,0.87689 6.08635,1.55557 5.79874,3.6998 -0.30156,2.24834 -2.10469,2.73865 -6.79761,1.84842 -2.57124,-0.48776 -2.35117,-0.66477 -3.31054,2.66284 -5.82567,20.20655 -27.46677,30.73707 -60.57965,29.47798 z"/>
    <path fill="#fdbec6" d="m 98.011098,197.45291 c -27.258995,-1.0365 -46.093451,-12.95242 -50.252583,-31.79309 -0.188343,-0.85318 -0.521885,-0.88922 -3.060956,-0.33072 -4.230951,0.93064 -6.422158,0.17802 -6.422158,-2.20584 0,-1.98277 0.980332,-2.61148 5.231533,-3.35511 3.441135,-0.60193 3.220943,-0.28816 3.196162,-4.55443 l -0.02116,-3.64296 -2.38125,-0.21814 c -3.933536,-0.36035 -5.423958,-1.2092 -5.423958,-3.08915 0,-2.31377 2.688571,-3.20073 7.555787,-2.49263 1.335589,0.1943 1.388468,0.12879 2.472811,-3.06362 1.216424,-3.58127 3.624614,-8.45108 5.626128,-11.37708 2.417039,-3.53346 2.297589,-3.17439 3.017362,-9.0701 3.79377,-31.075023 9.7934,-33.863823 26.431936,-12.28632 3.907724,5.06768 3.71344,4.9495 7.130195,4.33723 5.318503,-0.95305 6.790806,-1.077 12.588693,-1.05981 4.78626,0.0142 6.67918,0.13238 9.65729,0.60296 2.03729,0.32191 4.25784,0.64925 4.93455,0.72742 l 1.23037,0.14212 1.81233,-2.33634 c 10.16693,-13.106563 12.76132,-15.628213 16.3885,-15.929007 6.70057,-0.555663 9.84601,6.601907 12.01092,27.331217 0.37419,3.58293 0.56254,4.20646 1.80999,5.99172 2.64791,3.78951 5.26423,8.90108 6.6838,13.05828 l 0.99383,2.91042 3.5349,-0.0974 c 7.5077,-0.20686 7.89746,4.88791 0.43018,5.62306 -2.09379,0.20613 -2.99014,0.39492 -2.97166,0.62589 0.0145,0.1819 0.0443,1.92401 0.0661,3.87136 l 0.0397,3.54063 2.57969,0.45039 c 5.02265,0.87689 6.08635,1.55557 5.79874,3.6998 -0.30156,2.24834 -2.10469,2.73865 -6.79761,1.84842 -2.57124,-0.48776 -2.35117,-0.66477 -3.31054,2.66284 -5.82567,20.20655 -27.46677,30.73707 -60.57965,29.47798 z m 15.345832,-5.81138 c 20.92482,-1.79743 35.33367,-10.84864 39.83315,-25.02199 0.74681,-2.35245 0.62445,-2.74235 -0.86495,-2.75615 -5.6639,-0.0525 -8.51927,-2.57781 -5.8889,-5.20818 l 0.93243,-0.93243 2.17642,0.15904 c 1.19704,0.0875 2.86104,0.23606 3.69779,0.33019 l 1.52135,0.17115 v -2.92756 c 0,-3.06004 -0.12418,-3.4019 -1.19062,-3.27773 -6.65091,0.7744 -8.33438,0.30861 -8.33438,-2.30597 0,-2.12249 1.04602,-2.79934 4.98666,-3.22674 3.423,-0.37125 3.32187,-0.22805 2.25587,-3.19457 -1.0621,-2.95566 -2.80974,-6.26523 -5.03625,-9.53734 -2.58368,-3.79702 -2.66458,-4.01019 -3.1362,-8.26394 -1.5264,-13.76718 -3.6072,-22.5852 -5.53696,-23.46446 -1.52178,-0.69337 -3.66132,1.55872 -13.43038,14.13693 -2.95554,3.80542 -4.67317,4.43088 -9.6407,3.51055 -7.3953,-1.37013 -16.872525,-1.37013 -24.267827,0 -5.7203,1.05979 -6.47519,0.62778 -12.514834,-7.16208 -6.531728,-8.42455 -9.426302,-11.28532 -10.647931,-10.52361 -1.761423,1.09828 -3.601439,8.77037 -5.18069,21.60128 -0.752022,6.10994 -0.898701,6.60107 -2.726291,9.12854 -5.985025,8.27699 -7.54959,13.37706 -4.189592,13.65694 5.122027,0.42666 6.885918,2.06585 5.199432,4.83182 -0.670282,1.09932 -1.351051,1.24931 -4.608199,1.01527 -1.471284,-0.10572 -3.032248,-0.21209 -3.468811,-0.23639 l -0.79375,-0.0442 -0.07454,3.10885 c -0.05973,2.49098 -0.0026,3.10886 0.287636,3.10886 0.199198,0 1.537646,-0.17646 2.974328,-0.39213 3.807006,-0.57149 5.676119,0.17359 5.676119,2.26267 0,2.18214 -0.913136,2.81724 -4.822208,3.35392 -3.718799,0.51056 -3.574565,0.33408 -2.614666,3.19918 6.11586,18.25463 28.348029,27.56995 59.427494,24.90025 z M 93.4301,167.54686 c -5.05506,-0.841 -9.220559,-6.05144 -8.387572,-10.49165 0.648867,-3.45876 5.090798,-2.80009 5.543349,0.822 0.339781,2.71952 2.146017,4.14833 5.233911,4.14024 3.819233,-0.01 6.440712,-3.402 3.958581,-5.12212 -3.814796,-2.64366 -3.966863,-6.59595 -0.295727,-7.68616 8.459828,-2.51229 13.768278,2.41786 8.026388,7.45441 -1.70042,1.49154 -1.7602,1.96272 -0.44698,3.5234 2.61366,3.10615 8.60928,2.08823 9.22062,-1.56546 0.92926,-5.55361 6.4578,-5.06082 5.67101,0.50549 -1.02133,7.22561 -9.08332,10.71447 -16.36091,7.08025 -2.16922,-1.08325 -2.22022,-1.09453 -2.91041,-0.64403 -2.837461,1.85204 -5.985905,2.52705 -9.25226,1.98363 z m -23.20025,-5.2381 c -8.84058,-2.44223 -7.027517,-12.77263 2.230834,-12.71076 7.95715,0.0532 10.327978,9.08891 3.21083,12.23717 -1.309315,0.57917 -4.161063,0.82736 -5.441664,0.47359 z m 62.70625,0.007 c -9.04989,-2.44627 -6.98939,-13.21747 2.4209,-12.65518 6.38704,0.38164 9.41119,6.32843 5.34761,10.51567 -1.76469,1.81839 -5.32699,2.79948 -7.76851,2.13951 z m -52.847196,-14.9953 c -3.642307,-1.9763 0.430768,-10.17864 5.392137,-10.85867 5.664533,-0.77641 11.9176,8.52467 7.327032,10.89854 -2.271483,1.17463 -3.63043,0.10715 -4.837475,-3.79993 -0.267174,-0.86482 -1.304801,-1.48844 -1.924624,-1.15672 -0.514893,0.27556 -0.67541,0.55063 -1.748862,2.99703 -0.941498,2.14567 -2.489953,2.85206 -4.208208,1.91975 z m 33.899866,0.0174 c -2.11447,-1.1492 -1.2334,-5.89477 1.64513,-8.8609 4.41193,-4.5462 11.97252,-1.11495 12.8199,5.81809 0.50379,4.12185 -4.46816,4.72168 -5.83387,0.70382 -1.24145,-3.65228 -2.80371,-3.66818 -4.08402,-0.0416 -0.9141,2.58931 -2.56895,3.45566 -4.54714,2.38054 z"/>
    <path fill="#a9cce1" d="m 98.011098,197.45291 c -27.258995,-1.0365 -46.093451,-12.95242 -50.252583,-31.79309 -0.188343,-0.85318 -0.521885,-0.88922 -3.060956,-0.33072 -4.230951,0.93064 -6.422158,0.17802 -6.422158,-2.20584 0,-1.98277 0.980332,-2.61148 5.231533,-3.35511 3.441135,-0.60193 3.220943,-0.28816 3.196162,-4.55443 l -0.02116,-3.64296 -2.38125,-0.21814 c -3.933536,-0.36035 -5.423958,-1.2092 -5.423958,-3.08915 0,-2.31377 2.688571,-3.20073 7.555787,-2.49263 1.335589,0.1943 1.388468,0.12879 2.472811,-3.06362 1.216424,-3.58127 3.624614,-8.45108 5.626128,-11.37708 2.417039,-3.53346 2.297589,-3.17439 3.017362,-9.0701 3.79377,-31.075023 9.7934,-33.863823 26.431936,-12.28632 3.907724,5.06768 3.71344,4.9495 7.130195,4.33723 5.318503,-0.95305 6.790806,-1.077 12.588693,-1.05981 4.78626,0.0142 6.67918,0.13238 9.65729,0.60296 2.03729,0.32191 4.25784,0.64925 4.93455,0.72742 l 1.23037,0.14212 1.81233,-2.33634 c 10.16693,-13.106563 12.76132,-15.628213 16.3885,-15.929007 6.70057,-0.555663 9.84601,6.601907 12.01092,27.331217 0.37419,3.58293 0.56254,4.20646 1.80999,5.99172 2.64791,3.78951 5.26423,8.90108 6.6838,13.05828 l 0.99383,2.91042 3.5349,-0.0974 c 7.5077,-0.20686 7.89746,4.88791 0.43018,5.62306 -2.09379,0.20613 -2.99014,0.39492 -2.97166,0.62589 0.0145,0.1819 0.0443,1.92401 0.0661,3.87136 l 0.0397,3.54063 2.57969,0.45039 c 5.02265,0.87689 6.08635,1.55557 5.79874,3.6998 -0.30156,2.24834 -2.10469,2.73865 -6.79761,1.84842 -2.57124,-0.48776 -2.35117,-0.66477 -3.31054,2.66284 -5.82567,20.20655 -27.46677,30.73707 -60.57965,29.47798 z m 15.345832,-5.81138 c 20.92482,-1.79743 35.33367,-10.84864 39.83315,-25.02199 0.74681,-2.35245 0.62445,-2.74235 -0.86495,-2.75615 -5.6639,-0.0525 -8.51927,-2.57781 -5.8889,-5.20818 l 0.93243,-0.93243 2.17642,0.15904 c 1.19704,0.0875 2.86104,0.23606 3.69779,0.33019 l 1.52135,0.17115 v -2.92756 c 0,-3.06004 -0.12418,-3.4019 -1.19062,-3.27773 -6.65091,0.7744 -8.33438,0.30861 -8.33438,-2.30597 0,-2.12249 1.04602,-2.79934 4.98666,-3.22674 3.423,-0.37125 3.32187,-0.22805 2.25587,-3.19457 -1.0621,-2.95566 -2.80974,-6.26523 -5.03625,-9.53734 -2.58368,-3.79702 -2.66458,-4.01019 -3.1362,-8.26394 -1.5264,-13.76718 -3.6072,-22.5852 -5.53696,-23.46446 -1.52178,-0.69337 -3.66132,1.55872 -13.43038,14.13693 -2.95554,3.80542 -4.67317,4.43088 -9.6407,3.51055 -7.3953,-1.37013 -16.872525,-1.37013 -24.267827,0 -5.7203,1.05979 -6.47519,0.62778 -12.514834,-7.16208 -6.531728,-8.42455 -9.426302,-11.28532 -10.647931,-10.52361 -1.761423,1.09828 -3.601439,8.77037 -5.18069,21.60128 -0.752022,6.10994 -0.898701,6.60107 -2.726291,9.12854 -5.985025,8.27699 -7.54959,13.37706 -4.189592,13.65694 5.122027,0.42666 6.885918,2.06585 5.199432,4.83182 -0.670282,1.09932 -1.351051,1.24931 -4.608199,1.01527 -1.471284,-0.10572 -3.032248,-0.21209 -3.468811,-0.23639 l -0.79375,-0.0442 -0.07454,3.10885 c -0.05973,2.49098 -0.0026,3.10886 0.287636,3.10886 0.199198,0 1.537646,-0.17646 2.974328,-0.39213 3.807006,-0.57149 5.676119,0.17359 5.676119,2.26267 0,2.18214 -0.913136,2.81724 -4.822208,3.35392 -3.718799,0.51056 -3.574565,0.33408 -2.614666,3.19918 6.11586,18.25463 28.348029,27.56995 59.427494,24.90025 z M 93.4301,167.54686 c -5.05506,-0.841 -9.220559,-6.05144 -8.387572,-10.49165 0.648867,-3.45876 5.090798,-2.80009 5.543349,0.822 0.339781,2.71952 2.146017,4.14833 5.233911,4.14024 3.819233,-0.01 6.440712,-3.402 3.958581,-5.12212 -3.814796,-2.64366 -3.966863,-6.59595 -0.295727,-7.68616 8.459828,-2.51229 13.768278,2.41786 8.026388,7.45441 -1.70042,1.49154 -1.7602,1.96272 -0.44698,3.5234 2.61366,3.10615 8.60928,2.08823 9.22062,-1.56546 0.92926,-5.55361 6.4578,-5.06082 5.67101,0.50549 -1.02133,7.22561 -9.08332,10.71447 -16.36091,7.08025 -2.16922,-1.08325 -2.22022,-1.09453 -2.91041,-0.64403 -2.837461,1.85204 -5.985905,2.52705 -9.25226,1.98363 z M 80.088904,147.32013 c -3.642307,-1.9763 0.430768,-10.17864 5.392137,-10.85867 5.664533,-0.77641 11.9176,8.52467 7.327032,10.89854 -2.271483,1.17463 -3.63043,0.10715 -4.837475,-3.79993 -0.267174,-0.86482 -1.304801,-1.48844 -1.924624,-1.15672 -0.514893,0.27556 -0.67541,0.55063 -1.748862,2.99703 -0.941498,2.14567 -2.489953,2.85206 -4.208208,1.91975 z m 33.899866,0.0174 c -2.11447,-1.1492 -1.2334,-5.89477 1.64513,-8.8609 4.41193,-4.5462 11.97252,-1.11495 12.8199,5.81809 0.50379,4.12185 -4.46816,4.72168 -5.83387,0.70382 -1.24145,-3.65228 -2.80371,-3.66818 -4.08402,-0.0416 -0.9141,2.58931 -2.56895,3.45566 -4.54714,2.38054 z"/>
    <path fill="#b2c5b8" d="M 92.58714,196.81488 C 80.853875,195.6099 71.623286,192.68304 64.012142,187.75422 56.279576,182.74678 51.028554,175.7637 48.541107,167.18004 c -0.783868,-2.70496 -0.851158,-2.77617 -2.340928,-2.47713 -5.869636,1.1782 -7.588036,0.822 -7.588036,-1.57288 0,-1.85816 0.533258,-2.16971 5.233226,-3.05744 l 3.101149,-0.58575 0.07348,-3.93747 c 0.08689,-4.65618 0.326423,-4.29972 -3.126572,-4.65282 -7.209077,-0.73719 -6.569295,-5.29048 0.68597,-4.88201 3.741803,0.21066 3.410394,0.43027 4.591732,-3.04274 1.254188,-3.68718 3.488853,-8.19251 5.743504,-11.57954 2.299831,-3.4549 2.345754,-3.57368 2.734954,-7.07358 1.296511,-11.65895 2.913305,-19.45014 4.820406,-23.22911 4.157664,-8.23852 9.744121,-5.851024 21.231853,9.0739 4.010789,5.21084 3.934388,5.15802 6.684444,4.62157 8.273843,-1.61398 18.118191,-1.61404 26.588081,-1.8e-4 2.55058,0.48599 2.67042,0.41395 5.51065,-3.31265 10.29585,-13.508967 13.46409,-16.010987 18.07413,-14.273479 4.31739,1.627208 6.56065,7.728939 8.36549,22.754329 1.03733,8.63584 0.82595,7.8003 2.64392,10.45104 2.73133,3.98247 4.92654,8.39717 6.51244,13.09687 l 0.84819,2.51354 h 3.71485 c 4.36131,0 5.08476,0.32834 5.08476,2.30771 0,1.60375 -0.86739,2.23537 -3.38932,2.46806 -1.11905,0.10326 -2.57042,0.26361 -3.22526,0.35635 l -1.19062,0.16862 0.0979,4.0965 c 0.11626,4.8645 -0.35367,4.17406 3.25585,4.78362 4.46878,0.75467 5.53916,1.47324 5.10938,3.43002 -0.39934,1.81816 -1.69494,2.12221 -5.99236,1.40627 -2.99341,-0.49869 -3.28141,-0.43822 -3.53669,0.74258 -2.00425,9.2706 -8.71236,18.00497 -17.83939,23.22796 -6.90687,3.9525 -13.66413,6.06475 -24.61865,7.69552 -3.16159,0.47065 -19.58362,0.55146 -23.8125,0.11716 z m 20.76979,-5.17335 c 20.92482,-1.79743 35.33367,-10.84864 39.83315,-25.02199 0.74681,-2.35245 0.62445,-2.74235 -0.86495,-2.75615 -5.6639,-0.0525 -8.51927,-2.57781 -5.8889,-5.20818 l 0.93243,-0.93243 2.17642,0.15904 c 1.19704,0.0875 2.86104,0.23606 3.69779,0.33019 l 1.52135,0.17115 v -2.92756 c 0,-3.06004 -0.12418,-3.4019 -1.19062,-3.27773 -6.65091,0.7744 -8.33438,0.30861 -8.33438,-2.30597 0,-2.12249 1.04602,-2.79934 4.98666,-3.22674 3.423,-0.37125 3.32187,-0.22805 2.25587,-3.19457 -1.0621,-2.95566 -2.80974,-6.26523 -5.03625,-9.53734 -2.58368,-3.79702 -2.66458,-4.01019 -3.1362,-8.26394 -1.5264,-13.76718 -3.6072,-22.5852 -5.53696,-23.46446 -1.52178,-0.69337 -3.66132,1.55872 -13.43038,14.13693 -2.95554,3.80542 -4.67317,4.43088 -9.6407,3.51055 -7.3953,-1.37013 -16.872525,-1.37013 -24.267827,0 -5.7203,1.05979 -6.47519,0.62778 -12.514834,-7.16208 -6.531728,-8.42455 -9.426302,-11.28532 -10.647931,-10.52361 -1.761423,1.09828 -3.601439,8.77037 -5.18069,21.60128 -0.752022,6.10994 -0.898701,6.60107 -2.726291,9.12854 -5.985025,8.27699 -7.54959,13.37706 -4.189592,13.65694 5.122027,0.42666 6.885918,2.06585 5.199432,4.83182 -0.670282,1.09932 -1.351051,1.24931 -4.608199,1.01527 -1.471284,-0.10572 -3.032248,-0.21209 -3.468811,-0.23639 l -0.79375,-0.0442 -0.07454,3.10885 c -0.05973,2.49098 -0.0026,3.10886 0.287636,3.10886 0.199198,0 1.537646,-0.17646 2.974328,-0.39213 3.807006,-0.57149 5.676119,0.17359 5.676119,2.26267 0,2.18214 -0.913136,2.81724 -4.822208,3.35392 -3.718799,0.51056 -3.574565,0.33408 -2.614666,3.19918 6.11586,18.25463 28.348029,27.56995 59.427494,24.90025 z M 93.4301,167.54686 c -5.05506,-0.841 -9.220559,-6.05144 -8.387572,-10.49165 0.648867,-3.45876 5.090798,-2.80009 5.543349,0.822 0.339781,2.71952 2.146017,4.14833 5.233911,4.14024 3.819233,-0.01 6.440712,-3.402 3.958581,-5.12212 -3.814796,-2.64366 -3.966863,-6.59595 -0.295727,-7.68616 8.459828,-2.51229 13.768278,2.41786 8.026388,7.45441 -1.70042,1.49154 -1.7602,1.96272 -0.44698,3.5234 2.61366,3.10615 8.60928,2.08823 9.22062,-1.56546 0.92926,-5.55361 6.4578,-5.06082 5.67101,0.50549 -1.02133,7.22561 -9.08332,10.71447 -16.36091,7.08025 -2.16922,-1.08325 -2.22022,-1.09453 -2.91041,-0.64403 -2.837461,1.85204 -5.985905,2.52705 -9.25226,1.98363 z M 80.088904,147.32013 c -3.642307,-1.9763 0.430768,-10.17864 5.392137,-10.85867 5.664533,-0.77641 11.9176,8.52467 7.327032,10.89854 -2.271483,1.17463 -3.63043,0.10715 -4.837475,-3.79993 -0.267174,-0.86482 -1.304801,-1.48844 -1.924624,-1.15672 -0.514893,0.27556 -0.67541,0.55063 -1.748862,2.99703 -0.941498,2.14567 -2.489953,2.85206 -4.208208,1.91975 z m 33.899866,0.0174 c -2.11447,-1.1492 -1.2334,-5.89477 1.64513,-8.8609 4.41193,-4.5462 11.97252,-1.11495 12.8199,5.81809 0.50379,4.12185 -4.46816,4.72168 -5.83387,0.70382 -1.24145,-3.65228 -2.80371,-3.66818 -4.08402,-0.0416 -0.9141,2.58931 -2.56895,3.45566 -4.54714,2.38054 z"/>
    <path fill="#92b6ba" d="M 92.58714,196.81488 C 80.853875,195.6099 71.623286,192.68304 64.012142,187.75422 56.279576,182.74678 51.028554,175.7637 48.541107,167.18004 c -0.783868,-2.70496 -0.851158,-2.77617 -2.340928,-2.47713 -5.869636,1.1782 -7.588036,0.822 -7.588036,-1.57288 0,-1.85816 0.533258,-2.16971 5.233226,-3.05744 l 3.101149,-0.58575 0.07348,-3.93747 c 0.08689,-4.65618 0.326423,-4.29972 -3.126572,-4.65282 -7.209077,-0.73719 -6.569295,-5.29048 0.68597,-4.88201 3.741803,0.21066 3.410394,0.43027 4.591732,-3.04274 1.254188,-3.68718 3.488853,-8.19251 5.743504,-11.57954 2.299831,-3.4549 2.345754,-3.57368 2.734954,-7.07358 1.296511,-11.65895 2.913305,-19.45014 4.820406,-23.22911 4.157664,-8.23852 9.744121,-5.851024 21.231853,9.0739 4.010789,5.21084 3.934388,5.15802 6.684444,4.62157 8.273843,-1.61398 18.118191,-1.61404 26.588081,-1.8e-4 2.55058,0.48599 2.67042,0.41395 5.51065,-3.31265 10.29585,-13.508967 13.46409,-16.010987 18.07413,-14.273479 4.31739,1.627208 6.56065,7.728939 8.36549,22.754329 1.03733,8.63584 0.82595,7.8003 2.64392,10.45104 2.73133,3.98247 4.92654,8.39717 6.51244,13.09687 l 0.84819,2.51354 h 3.71485 c 4.36131,0 5.08476,0.32834 5.08476,2.30771 0,1.60375 -0.86739,2.23537 -3.38932,2.46806 -1.11905,0.10326 -2.57042,0.26361 -3.22526,0.35635 l -1.19062,0.16862 0.0979,4.0965 c 0.11626,4.8645 -0.35367,4.17406 3.25585,4.78362 4.46878,0.75467 5.53916,1.47324 5.10938,3.43002 -0.39934,1.81816 -1.69494,2.12221 -5.99236,1.40627 -2.99341,-0.49869 -3.28141,-0.43822 -3.53669,0.74258 -2.00425,9.2706 -8.71236,18.00497 -17.83939,23.22796 -6.90687,3.9525 -13.66413,6.06475 -24.61865,7.69552 -3.16159,0.47065 -19.58362,0.55146 -23.8125,0.11716 z m 20.90208,-4.89709 c 18.55521,-1.59768 33.2246,-9.65403 38.41265,-21.09604 2.48008,-5.46969 2.59915,-7.20107 0.49668,-7.22168 -5.03843,-0.0494 -7.62865,-1.92179 -6.10821,-4.41544 0.65267,-1.07043 1.4002,-1.25865 3.94004,-0.99205 1.11117,0.11664 2.61561,0.22226 3.34322,0.23471 l 1.32291,0.0226 0.0742,-3.06977 c 0.0901,-3.72664 0.0868,-3.73114 -2.46075,-3.40308 -4.98987,0.64257 -7.00617,0.0316 -7.00617,-2.12316 0,-1.93371 0.94553,-2.49734 4.91511,-2.92994 1.58956,-0.17323 2.98759,-0.40334 3.10674,-0.51136 0.69556,-0.63056 -2.75629,-8.05292 -6.02991,-12.96582 -2.58628,-3.88139 -2.40461,-3.37963 -2.92185,-8.0698 -1.6536,-14.99419 -3.9696,-23.6802 -6.31399,-23.6802 -1.4333,0 -5.34313,4.21062 -11.54708,12.43541 -4.51095,5.98034 -5.38798,6.37923 -11.67595,5.31043 -7.60119,-1.29202 -15.385019,-1.29438 -22.915582,-0.007 -6.583616,1.12552 -6.841574,0.98109 -13.448971,-7.53032 -11.381375,-14.660982 -12.715158,-13.684277 -15.846097,11.6039 -0.758629,6.12735 -0.987838,6.8644 -2.994479,9.62918 -2.627135,3.61971 -6.04696,10.53423 -6.204448,12.54474 l -0.06618,0.84489 2.886561,0.324 c 4.939518,0.55442 6.647293,2.36938 4.371166,4.6455 l -0.812063,0.81207 -2.958249,-0.21182 c -1.627037,-0.1165 -3.374968,-0.22319 -3.88429,-0.23711 l -0.926042,-0.0253 -0.07431,3.40788 -0.07431,3.40789 1.397225,-0.17078 c 0.768473,-0.0939 2.475339,-0.2435 3.793035,-0.33238 l 2.395811,-0.16161 0.713043,0.84741 c 1.919236,2.28088 0.495141,3.85921 -4.014091,4.44884 -3.837264,0.50177 -3.755137,0.40512 -2.799225,3.29409 6.162752,18.62513 28.44715,28.05052 59.913856,25.34111 z M 93.645474,167.28778 c -5.726057,-0.95841 -10.838556,-8.70599 -7.592018,-11.50509 1.575565,-1.35843 4.136329,-0.38748 4.164047,1.57884 0.07525,5.33772 7.960955,7.01541 10.463047,2.22602 0.67109,-1.28457 0.47686,-1.87329 -1.054083,-3.19501 -5.430779,-4.6886 -1.155552,-8.84829 7.242873,-7.04715 3.87433,0.83089 3.92546,4.63609 0.0992,7.38389 -1.12099,0.80503 -1.19864,0.93544 -1.06122,1.78224 0.62322,3.84045 6.89995,5.20208 9.63271,2.08964 0.84048,-0.95725 0.94405,-1.21574 1.24765,-3.11376 0.61279,-3.83103 5.06804,-2.99405 4.85712,0.91246 -0.4151,7.68823 -9.9684,11.7015 -16.8648,7.08479 l -1.16857,-0.78229 -1.87413,1.02002 c -2.801318,1.52465 -5.36835,2.02125 -8.091846,1.5654 z M 80.441813,147.13509 c -2.949268,-1.51568 -0.802423,-7.82233 3.369384,-9.89801 4.265377,-2.12223 10.063337,2.20991 10.092579,7.54101 0.02021,3.68678 -4.056311,3.60688 -5.291114,-0.10371 -1.178872,-3.54251 -2.984486,-3.58269 -4.256264,-0.0947 -0.892583,2.44799 -2.315813,3.37707 -3.914585,2.55543 z m 33.922727,0.0675 c -1.70097,-0.68516 -1.77503,-2.80953 -0.20914,-5.99945 3.19856,-6.5159 10.71595,-6.00265 13.35025,0.9115 2.0242,5.31283 -2.45704,7.92519 -4.62372,2.69542 -1.44041,-3.47676 -3.09088,-3.77433 -4.27319,-0.77044 -1.02082,2.59359 -1.15105,2.81611 -1.82891,3.12497 -0.77842,0.35467 -1.59714,0.36755 -2.41529,0.038 z"/>
    <path fill="#6da4bd" d="M 96.820473,197.05529 C 69.935096,195.24711 51.814982,183.5856 48.270931,165.8104 c -0.286624,-1.43756 -0.648854,-1.54891 -3.251255,-0.99945 -4.496189,0.94933 -6.407533,0.44619 -6.407533,-1.6867 0,-1.66219 0.844621,-2.14515 5.142021,-2.94021 3.573409,-0.66111 3.263538,-0.21666 3.364013,-4.82503 0.10069,-4.61825 0.39811,-4.21152 -3.355148,-4.58824 -3.565179,-0.35785 -4.357136,-0.81357 -4.357136,-2.5073 0,-1.91251 0.759503,-2.24896 5.076862,-2.24896 h 3.708484 l 1.023805,-2.91041 c 1.375785,-3.91101 3.881134,-8.96538 5.893515,-11.88977 2.083629,-3.02794 2.162722,-3.22251 2.538698,-6.24522 2.840867,-22.83956 4.92092,-28.034803 11.224481,-28.034803 3.857054,0 7.01992,2.974954 16.544168,15.561253 2.229313,2.94604 2.033227,2.88969 7.069626,2.03151 7.409627,-1.26256 15.208538,-1.20768 23.327278,0.16414 3.96266,0.66957 3.67646,0.80317 6.70054,-3.12799 17.47801,-22.720656 23.88877,-19.672605 26.82771,12.75546 0.25999,2.86873 0.58091,3.74171 2.3764,6.46441 2.95913,4.48728 5.60403,10.02373 6.73114,14.09001 0.43007,1.55158 0.48492,1.5699 3.82169,1.27674 4.01564,-0.35281 5.45851,0.22684 5.45851,2.19286 0,1.45159 -1.13825,2.18878 -3.7066,2.40056 -1.23559,0.10188 -2.69301,0.25567 -3.23871,0.34175 l -0.99219,0.15651 v 4.03483 c 0,4.78983 -0.26665,4.42363 3.6762,5.04875 3.42222,0.54258 4.60532,1.12416 4.74498,2.33253 0.3158,2.73225 -1.08162,3.17889 -6.6743,2.13323 -2.12715,-0.39771 -2.49022,-0.31252 -2.70021,0.63356 -4.7803,21.53709 -28.93344,33.85595 -62.017497,31.63087 z m 16.933337,-4.99339 c 21.25245,-1.99424 35.86371,-11.33917 39.98291,-25.5719 0.72214,-2.49516 0.62111,-2.79697 -1.00761,-3.01021 -5.73554,-0.75091 -6.69614,-1.17392 -6.69614,-2.94874 0,-2.20714 1.22745,-2.50228 7.45662,-1.7929 l 1.5035,0.17122 0.18476,-0.98486 c 0.20893,-1.11368 0.0157,-5.88032 -0.24911,-6.14513 -0.0952,-0.0952 -1.70431,-0.0296 -3.5759,0.1457 -4.49161,0.42069 -5.58445,0.009 -5.58445,-2.10503 0,-1.07058 0.87231,-2.3287 1.64162,-2.36771 3.92479,-0.199 6.16681,-0.67322 6.24228,-1.32033 0.2121,-1.81875 -3.08643,-8.72167 -6.31444,-13.21437 -1.7883,-2.48892 -2.03596,-3.09079 -2.35016,-5.71134 -0.15553,-1.29715 -0.40972,-3.43002 -0.56488,-4.7397 -1.58011,-13.33758 -3.87238,-21.03438 -6.2645,-21.03438 -1.26715,0 -4.88557,3.86799 -10.64301,11.37709 -5.4592,7.1201 -6.23169,7.57501 -11.28722,6.64687 -8.14406,-1.49515 -17.265754,-1.4975 -25.312791,-0.007 -4.893839,0.90674 -5.886328,0.34518 -10.918918,-6.178 -11.02893,-14.29556 -13.01357,-14.760947 -15.213255,-3.56742 -0.819732,4.17136 -1.470747,8.26247 -1.946661,12.2332 -0.979328,8.17088 -0.912927,7.94878 -3.441009,11.50937 -2.652615,3.73599 -6.775036,12.50896 -6.164738,13.11926 0.09523,0.0952 1.220558,0.27596 2.500728,0.40162 4.734147,0.4647 5.634872,0.89681 5.634872,2.70329 0,2.21364 -1.223136,2.67803 -5.686746,2.15912 -4.025489,-0.46799 -3.838253,-0.63685 -3.838253,3.46162 0,3.90455 -0.21797,3.71207 3.58127,3.16247 4.050777,-0.58599 5.414563,-0.0873 5.414563,1.98012 0,1.78561 -2.509815,2.88232 -6.648332,2.90513 -1.993378,0.011 -1.762943,1.86442 0.942206,7.57836 7.437702,15.71024 29.960225,23.83368 58.622794,21.14411 z M 93.248599,167.05882 c -4.319802,-0.939 -7.31964,-4.25726 -7.710554,-8.52901 -0.412715,-4.50996 4.239665,-4.51371 4.755086,-0.004 0.543068,4.75179 8.319278,5.52675 10.652009,1.06156 0.67421,-1.29055 0.47818,-1.87214 -1.08625,-3.22277 -4.635963,-4.0024 -3.098056,-7.04297 3.5623,-7.04297 6.70969,0 8.47994,3.48923 3.61465,7.1246 -1.54222,1.15236 -1.67329,1.60417 -0.9107,3.13942 2.32595,4.68259 10.80367,3.37237 10.80367,-1.6697 0,-2.62881 3.60523,-3.63702 4.52323,-1.26493 2.7977,7.22925 -9.32168,13.57409 -16.55367,8.66632 -1.19706,-0.81234 -1.49612,-0.81077 -2.74313,0.0145 -2.234591,1.47878 -6.364334,2.27946 -8.906641,1.72684 z M 79.833804,146.39875 c -1.912052,-1.91205 0.950737,-7.80502 4.438787,-9.13712 4.264906,-1.62878 9.371853,2.39014 9.372674,7.37585 5.29e-4,3.48779 -3.595481,3.56038 -4.748403,0.0958 -1.270379,-3.81749 -3.281648,-3.85991 -4.768387,-0.10058 -1.036177,2.62005 -2.740001,3.32068 -4.294671,1.766 z m 34.059206,0.23538 c -1.47099,-1.15708 -0.30844,-5.30976 2.21445,-7.91011 4.09751,-4.22332 11.13291,-0.82286 11.87245,5.73837 0.39946,3.544 -3.70015,3.79927 -4.95537,0.30855 -1.41871,-3.94536 -3.45486,-3.99892 -4.85934,-0.12784 -0.94663,2.60913 -2.54149,3.35241 -4.27219,1.99103 z"/>
    <path fill="#549bc6" d="m 95.894432,196.79625 c -27.455211,-2.47591 -42.683376,-12.49549 -47.482145,-31.24151 -0.354152,-1.38347 -0.665705,-1.49381 -2.894263,-1.02501 -4.91629,1.03417 -6.641298,0.69464 -6.641298,-1.30719 0,-1.74952 0.905869,-2.20925 6.00467,-3.04738 2.542942,-0.418 2.488699,-0.30361 2.402907,-5.06724 l -0.0732,-4.06454 -1.058333,-0.19197 c -0.582084,-0.10559 -1.986871,-0.26553 -3.121749,-0.35541 -6.09572,-0.48279 -4.620799,-4.55137 1.530506,-4.22191 4.046764,0.21674 3.723025,0.40535 4.760025,-2.77312 1.450543,-4.446 3.942093,-9.45573 6.294308,-12.65589 1.507298,-2.05066 1.951035,-3.28039 2.307254,-6.39411 2.180254,-19.05764 4.43689,-25.766342 9.125637,-27.129398 4.5033,-1.309145 7.389158,1.133263 18.456046,15.620028 2.187448,2.86341 1.670161,2.77938 8.802137,1.42978 4.540773,-0.85927 15.490526,-0.57159 21.766986,0.57186 3.87547,0.70604 3.15598,1.21306 9.05697,-6.38243 14.27338,-18.372063 20.4412,-15.350535 23.52496,11.52454 0.97628,8.50839 0.49677,6.99944 3.99378,12.56771 1.93492,3.08095 4.12826,7.7162 5.17644,10.93952 l 0.87362,2.68652 h 3.65466 c 3.94032,0 4.72027,0.2035 4.99638,1.30364 0.51013,2.0325 -0.39828,2.66913 -4.38443,3.07273 -1.67349,0.16944 -3.13488,0.36421 -3.24754,0.43282 -0.18279,0.11131 -0.0282,8.53969 0.16006,8.72797 0.0422,0.0421 1.65377,0.36805 3.58138,0.72423 4.44061,0.82051 5.25618,1.45953 4.41924,3.46259 -0.50683,1.21301 -1.49987,1.37225 -4.98883,0.79997 -3.91673,-0.64244 -3.91525,-0.64296 -4.49718,1.58438 -4.04467,15.48091 -18.81709,26.77998 -38.55421,29.48916 -1.23692,0.16979 -3.02286,0.43007 -3.96875,0.5784 -1.65856,0.26009 -17.815422,0.53611 -19.976036,0.34126 z m 17.727078,-4.47911 c 21.42813,-1.99522 35.85249,-11.1251 40.24372,-25.47217 0.9438,-3.08359 0.87259,-3.31847 -1.08538,-3.58003 -5.65415,-0.75534 -6.4823,-1.09663 -6.4823,-2.67143 0,-1.93067 1.33508,-2.37452 5.43078,-1.8055 3.81749,0.53036 3.64065,0.701 3.64065,-3.51308 0,-4.21467 0.23916,-4.00092 -4.02126,-3.59407 -3.85407,0.36805 -4.63232,0.20624 -5.25481,-1.09256 -0.91553,-1.91017 0.44955,-2.90793 4.43798,-3.2438 3.27597,-0.27587 3.43958,-0.33432 3.43958,-1.22869 0,-1.87043 -2.99711,-8.28505 -5.77273,-12.35516 -2.79899,-4.10441 -2.73964,-3.9306 -3.35984,-9.83884 -0.92913,-8.85112 -2.96581,-18.45149 -4.45266,-20.98862 -2.07966,-3.548661 -4.30259,-1.79616 -14.20934,11.20228 -3.80633,4.99421 -5.34983,5.97191 -8.42533,5.33686 -7.95376,-1.64236 -18.154128,-1.80587 -25.95718,-0.41609 -1.236927,0.2203 -2.623756,0.46629 -3.081842,0.54663 -2.565054,0.44987 -4.267168,-0.93522 -9.649071,-7.8519 -11.944852,-15.351196 -13.752964,-13.986266 -16.78045,12.66742 -0.565817,4.9814 -0.731459,5.45763 -3.116463,8.9599 -5.395585,7.92318 -7.192606,13.39368 -4.49638,13.68789 5.4779,0.59774 6.432541,0.9895 6.432541,2.63975 0,2.27069 -1.723939,2.62088 -7.845345,1.59367 -1.469302,-0.24656 -1.679654,0.2496 -1.679654,3.96183 0,4.16073 -0.202942,3.99085 4.084597,3.41908 4.014898,-0.5354 4.710853,-0.29419 4.858836,1.68408 0.115224,1.54034 -0.573554,1.98993 -3.681441,2.403 -4.919627,0.65386 -4.833905,0.55755 -3.650863,4.10183 6.247092,18.71569 29.151674,28.36047 60.433655,25.44772 z M 93.224016,166.79337 c -4.93531,-1.05671 -9.418513,-7.71765 -7.08425,-10.52546 1.310516,-1.57637 3.801541,-0.50108 3.801541,1.641 0,5.11411 8.018923,6.81135 10.878383,2.30246 1.22681,-1.93449 1.10517,-2.49066 -0.896652,-4.09941 -4.317769,-3.46997 -2.95004,-6.31483 3.115142,-6.47946 6.83008,-0.1854 8.40308,2.17574 4.17199,6.26233 -2.18225,2.10771 -2.2559,3.42066 -0.29452,5.25066 3.53063,3.29413 9.52612,1.51318 10.24647,-3.04369 0.43423,-2.74694 3.0629,-3.63408 4.00791,-1.35261 2.88815,6.97262 -8.98644,13.08567 -16.17636,8.32761 -1.23412,-0.8167 -1.64564,-0.83621 -2.64395,-0.12536 -2.21486,1.57713 -6.408867,2.42364 -9.125704,1.84193 z M 80.025531,146.36891 c -0.911209,-0.71675 -0.848741,-2.24357 0.184097,-4.49959 1.739546,-3.79966 4.850294,-5.44673 8.416086,-4.4561 2.991271,0.83103 6.124874,7.51377 4.239247,9.04065 -1.498505,1.21342 -2.963513,0.50317 -3.733255,-1.80991 -1.304951,-3.92138 -3.800634,-4.0717 -5.11965,-0.30837 -0.901213,2.57128 -2.358007,3.31432 -3.986525,2.03332 z m 34.022499,0.13929 c -1.36104,-0.95331 -0.12581,-5.22144 2.21932,-7.66846 3.83779,-4.00456 10.7467,-0.64718 11.43966,5.5591 0.39433,3.53163 -3.34247,3.48007 -4.58437,-0.0633 -1.29749,-3.70191 -3.84502,-3.65943 -5.1335,0.0856 -0.86116,2.503 -2.27687,3.25269 -3.94111,2.08701 z"/>
  </g>
</svg>
